<svg width="171" height="129" viewBox="0 0 171 129" fill="none" xmlns="http://www.w3.org/2000/svg">
    <path d="M55.415 100.844C55.3347 100.873 55.24 100.862 55.1307 100.811C55.0215 100.759 54.9267 100.748 54.8465 100.777C54.7662 100.806 54.3471 100.776 53.5891 100.687C52.9113 100.569 52.5323 100.524 52.452 100.553C52.3205 100.691 52.2146 100.775 52.1343 100.804C52.2079 100.505 52.1243 100.399 51.8835 100.486C51.723 100.544 51.6171 100.628 51.5658 100.737L51.325 100.824C51.4856 100.766 50.8624 100.674 49.4556 100.547L49.0844 100.272L46.8873 99.8409C46.778 99.7896 46.6944 99.6837 46.6365 99.5232C45.9877 99.4853 45.019 99.0639 43.7304 98.2591C42.8631 98.1186 42.1753 97.5958 41.667 96.6907C41.3972 96.6973 41.0149 96.5179 40.5199 96.1522L40.433 95.9115C40.5133 95.8825 40.5389 95.8279 40.5099 95.7476C40.4296 95.7766 40.3204 95.7253 40.1822 95.5938C40.1242 95.4332 39.8188 95.0899 39.2659 94.5638L38.5669 94.1357L38.2827 94.1023C38.334 93.993 38.3451 93.8983 38.3161 93.818C38.2582 93.6575 38.2548 93.5226 38.3061 93.4134C38.2771 93.3331 38.1021 93.3509 37.7811 93.4669L35.9852 89.6244C35.9562 89.5441 35.6608 89.6054 35.099 89.8083C35.0121 89.5675 34.8883 89.4761 34.7278 89.5341C34.6475 89.5631 34.6219 89.6177 34.6509 89.698L34.5305 89.7414C34.4502 89.7704 34.1403 89.7916 33.6008 89.805C33.0323 89.7381 32.6276 89.7481 32.3869 89.8351L32.3099 89.9989C32.5284 90.1015 32.7581 90.1093 32.9989 90.0223C33.0278 90.1026 33.1516 90.194 33.3701 90.2966C33.3767 90.5663 33.2196 90.7592 32.8985 90.8751C32.8183 90.9041 32.6834 90.9074 32.4939 90.8851C32.2754 90.7826 32.126 90.7458 32.0458 90.7748C31.9655 90.8038 31.9544 90.8985 32.0123 91.059L31.6411 90.7848C30.5331 90.7313 29.0025 90.5128 27.0495 90.1294C26.044 89.8574 25.5012 89.7359 25.4209 89.7649C25.3407 89.7938 25.2749 89.8629 25.2236 89.9722C25.1656 89.8117 24.7398 89.5118 23.9461 89.0726C23.1524 88.6334 22.7121 88.2934 22.6252 88.0526C22.4223 87.4908 22.3799 86.871 22.4981 86.1933C22.8704 85.9681 23.0164 85.87 22.9362 85.899C22.9072 85.8187 22.973 85.7496 23.1335 85.6916L23.3743 85.6047C23.4835 85.656 23.5783 85.6671 23.6585 85.6381C23.7388 85.6091 23.8302 85.4854 23.9327 85.2669L24.3039 85.5411L24.4578 85.2134C24.567 85.2647 24.9092 85.4586 25.4844 85.7953C26.0597 86.1319 26.4275 86.2713 26.588 86.2133C26.3473 86.3003 27.6114 86.6603 30.3803 87.2935L34.0757 87.7282L34.5673 87.959C34.6475 87.93 34.6732 87.8754 34.6442 87.7951C34.6152 87.7149 34.6408 87.6602 34.7211 87.6312L35.2127 87.862C35.1481 87.4317 35.0945 86.9067 35.0522 86.2869C35.0098 85.6671 34.924 84.9269 34.7947 84.0663C35.4635 84.9135 35.8592 85.6325 35.9819 86.2233L36.527 86.9791L36.8313 87.8219C37.0275 88.1139 37.2058 88.231 37.3664 88.173C37.4466 88.144 37.4723 88.0894 37.4433 88.0091L37.5637 87.9657C37.5637 87.9657 37.7933 87.9735 38.2526 87.9891C38.7118 88.0047 38.9961 88.0381 39.1053 88.0894C39.2949 88.1117 39.539 88.1596 39.8377 88.2332C40.1877 88.1975 40.7128 88.144 41.4128 88.0727L43.1184 88.2733C43.0671 88.3826 43.0961 88.4628 43.2053 88.5141C43.2566 88.4049 43.4428 88.2923 43.7638 88.1763C44.0046 88.0894 45.5975 88.1039 48.5427 88.2198C49.0019 88.2354 49.2059 88.2978 49.1546 88.4071C49.1836 88.4873 49.2784 88.4985 49.4389 88.4405L49.5593 88.3971C49.5303 88.3168 49.5559 88.2622 49.6362 88.2332L50.6863 88.1262L51.014 88.28C51.1745 88.222 51.3351 88.1641 51.4956 88.1061C51.7364 88.0192 52.0318 87.9579 52.3818 87.9222C52.8188 88.1273 53.1175 88.2009 53.278 88.1429C53.3583 88.1139 53.3839 88.0593 53.3549 87.979C53.2457 87.9277 53.2312 87.8876 53.3115 87.8586C53.3917 87.8297 53.6359 87.8776 54.0438 88.0024C54.4229 88.047 54.6525 88.0548 54.7328 88.0258C54.813 87.9969 54.8387 87.9422 54.8097 87.862C54.7807 87.7817 54.8465 87.7126 55.007 87.6546C55.0872 87.6257 55.1965 87.6769 55.3347 87.8085C55.5532 87.911 55.7026 87.9478 55.7828 87.9188C56.2644 87.7449 56.8697 87.6624 57.5987 87.6714C58.3278 87.6803 58.6923 87.6847 58.6923 87.6847C58.8528 87.6268 58.9843 87.4885 59.0869 87.2701C59.2028 87.5911 59.7022 87.5922 60.5851 87.2734L60.8259 87.1864C60.7969 87.1062 60.8225 87.0516 60.9028 87.0226C60.983 86.9936 61.0923 87.0449 61.2305 87.1764C61.3687 87.308 61.478 87.3592 61.5583 87.3302C61.799 87.2433 61.9818 86.9958 62.1067 86.5878C62.1424 86.9379 62.401 87.0259 62.8825 86.852L63.3641 86.6781C63.6852 86.5622 63.8501 86.1397 63.8591 85.4107C64.1444 84.9447 64.3975 84.2636 64.6182 83.3674C64.8902 82.3619 65.1845 81.1669 65.501 79.7824L66.1498 78.1872C66.1364 77.6477 66.2836 77.0502 66.5912 76.3947C66.6938 76.1763 66.6503 76.0559 66.4608 76.0336C66.8777 75.4294 67.094 74.8977 67.1096 74.4384C67.0962 73.8989 67.1709 73.1007 67.3337 72.0439L67.551 72.6459C67.8944 72.3405 67.9278 72.0562 67.6514 71.7931L68.0995 71.9035C68.1864 72.1443 68.2366 72.5344 68.25 73.074C67.9847 74.3492 67.7428 74.9355 67.5243 74.833C67.502 75.0225 67.5923 75.3982 67.7952 75.96C67.6926 76.1785 67.5644 76.4516 67.4106 76.7793C67.2567 77.107 67.2634 77.3768 67.4306 77.5886C67.2255 78.0256 67.1007 78.4336 67.0561 78.8126C67.0628 79.0823 66.8454 80.1135 66.404 81.906C66.1186 82.3719 65.8511 83.0129 65.6014 83.8289C65.6304 83.9091 65.6995 83.9749 65.8087 84.0262L67.2367 81.197L67.1497 80.9562C67.0918 80.7957 67.0483 80.6753 67.0193 80.595C67.0416 80.4055 67.0494 80.1759 67.0427 79.9061C67.5689 79.3532 67.9167 78.6833 68.0861 77.8963C68.2555 77.1093 68.3848 76.3368 68.474 75.5788C68.6791 75.1418 68.8486 74.3548 68.9823 73.2178L69.377 72.8031L69.2031 72.3215C69.4438 72.2346 69.4305 71.695 69.1629 70.7029C69.105 70.5424 69.1718 69.9739 69.3636 68.9974C69.3636 68.9974 69.4951 68.8591 69.7582 68.5827C69.7002 68.4222 69.6824 68.2472 69.7047 68.0577C69.3992 67.7143 69.2655 67.2183 69.3034 66.5695L69.6746 66.8437L70.0826 65.3355C69.8641 65.2329 69.6746 65.2106 69.5141 65.2686C69.2733 65.3556 69.1674 65.4392 69.1964 65.5194L68.1597 64.5329C68.2399 64.5039 68.4595 64.1071 68.8185 63.3424C68.7605 63.1818 68.7538 62.9121 68.7984 62.5331C68.5732 62.1607 68.4863 61.92 68.5376 61.8107C68.6691 61.6725 68.746 61.5086 68.7683 61.3191C68.8709 61.1006 68.9734 60.8821 69.076 60.6637C69.1585 59.6359 69.2231 58.4331 69.2699 57.0553C69.397 55.6485 69.5865 54.0377 69.8384 52.2229C69.9187 52.1939 70.0101 52.0702 70.1127 51.8517C70.0413 51.1517 70.0023 50.6667 69.9956 50.397C70.0402 50.018 70.0625 49.8285 70.0625 49.8285C70.1717 49.8797 70.2665 49.8909 70.3467 49.8619C70.3334 49.3224 70.3713 48.6736 70.4604 47.9156C70.6009 47.0483 70.7124 46.1008 70.7949 45.073C70.7949 45.073 70.9844 45.0953 71.3634 45.1399C71.3924 45.2202 71.4503 45.3807 71.5373 45.6215C71.5952 45.782 71.6276 45.9971 71.6343 46.2669L71.8416 46.4642C71.8929 46.355 71.8895 46.2201 71.8316 46.0596C71.7736 45.899 71.7558 45.724 71.7781 45.5345C72.3109 45.2514 72.4725 44.694 72.263 43.8624C72.2919 43.9427 72.3466 43.9683 72.4268 43.9393L72.0356 42.8558C72.3566 42.7399 72.4993 42.5069 72.4636 42.1569L71.2932 42.3074L70.9888 41.4646C70.9598 41.3844 70.9454 41.3443 70.9454 41.3443C70.9966 41.235 71.0044 41.0054 70.9688 40.6553C70.9398 40.5751 70.8707 40.5093 70.7614 40.458C70.8127 40.3488 70.893 40.3198 71.0022 40.3711C71.185 40.1236 71.2954 39.6755 71.3333 39.0267C71.3333 39.0267 71.418 38.6332 71.5874 37.8462C71.5295 37.6857 71.5228 37.4159 71.5674 37.0369C71.6632 36.5487 71.7089 35.6703 71.7045 34.4017C71.9542 33.5857 72.0835 32.8132 72.0924 32.0842L72.3232 31.5926L72.2161 30.5425L72.9218 27.9742C73.0243 27.7557 72.9808 27.6353 72.7913 27.613C73.5003 26.8126 73.7177 25.7815 73.4434 24.5196C73.546 24.3011 73.6486 24.0826 73.7511 23.8642C73.8537 23.6457 73.8325 23.3358 73.6876 22.9345C73.7678 22.9055 73.8626 22.9166 73.9718 22.9679C74.0967 22.5599 74.2215 22.1519 74.3464 21.7439C74.4712 21.336 74.5559 20.9425 74.6005 20.5634C74.2728 20.4096 74.0688 20.3472 73.9885 20.3762C73.828 20.4341 73.7221 20.5177 73.6708 20.627L73.3097 20.7574C73.1492 20.8154 73.0945 20.7897 73.1458 20.6805C73.1971 20.5712 73.1826 20.5311 73.1023 20.5601C72.9418 20.6181 72.7958 20.7162 72.6642 20.8544L72.1827 21.0283C72.1024 21.0573 72.0478 21.0316 72.0188 20.9514L71.4169 21.1687C71.2563 21.2267 71.1215 21.2301 71.0122 21.1788C70.874 21.0472 70.7647 20.996 70.6845 21.0249L70.5641 21.0684C70.5931 21.1487 70.5674 21.2033 70.4872 21.2323C70.5674 21.2033 70.2687 21.1297 69.5909 21.0116L69.4371 21.3393L67.1731 21.4764L67.0527 21.5199C67.0014 21.6291 66.9357 21.6982 66.8554 21.7272C66.7751 21.7562 66.3705 21.7662 65.6414 21.7573C64.9124 21.7484 64.5078 21.7584 64.4275 21.7874C64.3472 21.8164 64.3216 21.871 64.3506 21.9513L64.2302 21.9948C63.8222 21.8699 63.6182 21.8075 63.6182 21.8075C63.6695 21.6983 63.4399 21.6904 62.9293 21.7841C62.3898 21.7975 61.0989 21.9914 59.0567 22.366C58.7647 22.5622 58.5239 22.6491 58.3344 22.6268C58.0646 22.6335 57.7146 22.6692 57.2843 22.7338C56.9053 22.6892 56.3803 22.7428 55.7092 22.8944L55.5453 22.8174C55.3268 22.7149 55.0459 22.8163 54.7026 23.1218L54.4183 23.0883C54.3381 23.1173 54.2835 23.0917 54.2545 23.0114L54.0137 23.0984C53.9334 23.1273 53.9479 23.1675 54.0572 23.2187L53.9368 23.2622C54.017 23.2332 53.8019 23.2656 53.2913 23.3592C52.7518 23.3726 52.2268 23.4261 51.7162 23.5197C51.2859 23.5844 51.1109 23.6022 51.1912 23.5732C50.8924 23.4997 50.6918 23.5721 50.5892 23.7906C50.2102 23.746 50.0207 23.7237 50.0207 23.7237C49.9405 23.7527 49.8747 23.8218 49.8234 23.9311C49.8524 24.0113 49.8268 24.0659 49.7465 24.0949C49.8268 24.0659 49.6774 24.0292 49.2984 23.9846C48.9706 23.8307 48.5259 23.8553 47.964 24.0581C47.8838 24.0871 47.8582 24.1418 47.8871 24.222C47.9161 24.3023 47.8503 24.3714 47.6898 24.4294C47.6096 24.4583 47.5549 24.4327 47.526 24.3524C47.497 24.2722 47.4424 24.2465 47.3621 24.2755C47.2818 24.3045 47.2161 24.3736 47.1648 24.4829C47.1938 24.5631 47.1681 24.6177 47.0879 24.6467C47.0076 24.6757 46.953 24.6501 46.924 24.5698C46.9753 24.4606 46.9608 24.4204 46.8805 24.4494C46.72 24.5074 46.6542 24.5765 46.6832 24.6568L45.1416 24.533L44.9877 24.8608C44.9877 24.8608 44.8239 24.7838 44.4961 24.63L44.3423 24.9577C44.1238 24.8552 43.9889 24.8585 43.9376 24.9678L43.6534 24.9343C43.3546 24.8608 42.8697 24.8998 42.1987 25.0514C41.5789 25.0937 41.2288 25.1294 41.1486 25.1584C41.1486 25.1584 41.0315 25.3368 40.7975 25.6935C40.6013 25.4014 40.3426 25.3133 40.0216 25.4293C39.9413 25.4583 39.9157 25.5129 39.9447 25.5931L39.8243 25.6366C39.9848 25.5786 39.8756 25.5274 39.4966 25.4828L39.4196 25.6466L36.6741 25.9577C36.353 26.0736 35.9918 26.204 35.5905 26.3489C35.1603 26.4136 34.6497 26.5072 34.0589 26.6298C34.1615 26.4114 34.1325 26.3311 33.972 26.3891C33.8114 26.447 33.7055 26.5306 33.6543 26.6399L33.2931 26.7703C33.2128 26.7993 33.1582 26.7736 33.1292 26.6934L33.0088 26.7369L32.7346 27.1081L32.4069 26.9542C32.3266 26.9832 32.2608 27.0523 32.2096 27.1616C32.1583 27.2708 32.0925 27.3399 32.0123 27.3689L30.1529 27.496C29.9924 27.554 29.8865 27.6376 29.8352 27.7468L28.8721 28.0946C28.7115 28.1526 28.2957 28.2574 27.6247 28.409C27.0339 28.5316 26.6983 28.6074 26.6181 28.6364C26.5378 28.6653 26.5122 28.72 26.5412 28.8002C26.6504 28.8515 26.6649 28.8916 26.5846 28.9206C26.5044 28.9496 26.3294 28.9674 26.0596 28.9741C25.7609 28.9006 25.4911 28.9072 25.2503 28.9942L24.8891 29.1246C24.7576 29.2628 24.6116 29.3609 24.451 29.4189C24.6918 29.332 24.4187 29.2038 23.6317 29.0343C23.5292 29.2528 23.5214 29.4825 23.6083 29.7232L23.0398 29.6563L22.3174 29.9172C22.0477 29.9239 21.8325 29.9562 21.672 30.0142C21.5918 30.0432 21.5661 30.0978 21.5951 30.178C21.6241 30.2583 21.5583 30.3274 21.3978 30.3854C21.3175 30.4144 21.128 30.3921 20.8293 30.3185C20.6108 30.2159 20.4614 30.1792 20.3812 30.2081C20.3009 30.2371 20.2496 30.3464 20.2273 30.5359C20.2563 30.6161 20.176 30.6451 19.9865 30.6228L18.5753 30.8603C18.495 30.8892 18.5095 30.9294 18.6188 30.9806C18.6478 31.0609 18.6221 31.1155 18.5419 31.1445C18.4616 31.1735 18.407 31.1479 18.378 31.0676C18.349 30.9873 18.2543 30.9762 18.0937 31.0342C18.203 31.0854 17.9655 31.3073 17.3814 31.6997L16.6591 31.9605C16.4986 32.0185 16.3927 32.1021 16.3414 32.2113L15.4986 32.5156C15.2289 32.5223 14.8933 32.5981 14.492 32.743C14.492 32.743 14.4263 32.8122 14.2947 32.9504C14.1632 33.0886 14.0573 33.1722 13.977 33.2012L13.4854 32.9705L13.452 33.2547C13.394 33.0942 13.2848 33.0429 13.1243 33.1009C13.044 33.1299 12.9125 33.2681 12.7297 33.5156C12.6271 33.734 12.5357 33.8578 12.4554 33.8868C12.3752 33.9157 12.2804 33.9046 12.1712 33.8533C12.0619 33.802 11.9672 33.7909 11.8869 33.8199L7.93408 36.0638C7.85382 36.0928 7.82818 36.1474 7.85717 36.2277C7.88615 36.308 7.86051 36.3626 7.78025 36.3916C7.69999 36.4206 7.60524 36.4094 7.496 36.3581C7.35777 36.2266 7.24852 36.1753 7.16826 36.2043C7.088 36.2333 6.95647 36.3715 6.77365 36.619C6.59083 36.8664 6.4593 37.0047 6.37904 37.0336C5.49617 37.3525 4.94884 37.5955 4.73704 37.7627C4.3781 38.5274 3.95784 38.9967 3.47628 39.1706C3.39602 39.1996 3.30127 39.1884 3.19202 39.1372L2.95124 39.2241C2.87098 39.2531 2.73944 39.3913 2.55663 39.6388C2.37381 39.8862 2.10628 40.5272 1.75402 41.5617L1.336 42.6653C0.91909 43.2695 0.574639 44.0743 0.302645 45.0798C0.360612 45.2403 0.363957 45.3752 0.312679 45.4844C0.450906 45.616 0.577985 45.8423 0.693918 46.1633C0.867816 46.6449 0.837718 47.064 0.603626 47.4207C0.632609 47.501 0.68723 47.5266 0.767491 47.4976C0.838834 48.1977 1.05286 48.6648 1.40958 48.8988C1.30033 48.8476 1.28919 48.9423 1.37614 49.1831C1.66597 49.9857 2.0617 50.7047 2.56333 51.3401C2.59231 51.4204 2.88325 51.7236 3.43616 52.2497C4.04034 52.6666 4.4227 52.8461 4.58322 52.7881L4.80059 53.3901C4.82958 53.4704 4.91318 53.5763 5.05141 53.7078C5.26989 53.8103 5.37914 53.8616 5.37914 53.8616L5.63999 54.584C5.80051 54.526 5.93539 54.5227 6.04463 54.5739L6.17506 54.9351L7.7368 55.8681C7.79476 56.0287 8.04223 56.2115 8.47921 56.4166C9.33086 57.0163 9.79682 57.3017 9.87708 57.2727L10.0744 57.0654L10.2048 57.4265C10.372 57.6383 10.6741 57.8468 11.1111 58.0519C12.0943 58.5134 13.1834 58.8913 14.3784 59.1856C14.4073 59.2658 14.3962 59.3606 14.3449 59.4698L14.88 59.821C15.9568 60.793 16.8419 61.1085 17.5353 60.7674C17.6445 60.8186 17.7025 60.9792 17.7092 61.2489C18.2264 61.4251 18.9075 61.6781 19.7525 62.0081C20.6777 62.309 21.6977 62.6212 22.8124 62.9444C23.1335 62.8285 23.3887 62.7817 23.5782 62.804C23.935 63.0381 24.1936 63.1261 24.3541 63.0682C25.344 63.7994 26.1198 64.0636 26.6816 63.8607C26.8199 63.9923 27.5233 64.0558 28.7918 64.0514C28.9813 64.0736 29.4295 64.184 30.1362 64.3824C30.8429 64.5809 31.3568 64.6221 31.6779 64.5062C31.7292 64.3969 31.7949 64.3278 31.8752 64.2988L31.9621 64.5396C32.136 65.0212 32.3946 65.1092 32.738 64.8038C33.0813 64.4984 33.3801 64.5719 33.6342 65.0245C33.7368 64.806 33.7736 64.6566 33.7446 64.5764C34.021 64.8395 34.3231 65.0479 34.6509 65.2018C35.4602 65.1817 35.8247 65.1862 35.7444 65.2151L34.9886 65.7602C34.8214 65.5484 34.5372 65.515 34.1359 65.6599C34.0556 65.6889 33.9352 65.7324 33.7747 65.7903C33.6142 65.8483 33.4681 65.9464 33.3366 66.0846C33.3366 66.0846 33.2017 66.088 32.9319 66.0947C32.6332 66.0211 32.2252 65.8962 31.708 65.7201C31.4895 65.6176 31.2052 65.5841 30.8552 65.6198L30.6579 65.8271L30.7348 65.6633C30.2978 65.4581 29.9991 65.3846 29.8386 65.4425C29.9188 65.4136 29.8676 65.5228 29.6847 65.7703C29.5175 65.5585 28.6503 65.418 27.083 65.3489C27.025 65.1884 26.8321 65.0312 26.5044 64.8774C25.8267 64.7592 25.3273 64.7581 25.0062 64.874C24.9259 64.903 24.9404 64.9431 25.0497 64.9944L24.9293 65.0379C24.7688 65.0959 23.9818 64.9264 22.5683 64.5296C21.1548 64.1327 20.3678 63.9633 20.2073 64.0213C20.0468 64.0792 19.9955 64.1885 20.0535 64.349C20.0535 64.349 19.8896 64.2721 19.5619 64.1182C19.3144 63.9354 19.1617 63.7638 19.1037 63.6032C18.9432 63.6612 18.5753 63.5219 18.0001 63.1852L17.8463 63.513L17.3112 63.1618C16.9188 62.5777 16.5253 62.493 16.1307 62.9077L15.5856 62.1519C15.4831 62.3704 15.3515 62.5086 15.191 62.5666L14.6994 62.3358L14.4586 62.4227C14.1376 62.5387 13.704 62.4685 13.1577 62.2121C12.5825 61.8754 12.0876 61.5098 11.6729 61.1152L10.6128 60.8175L10.5259 60.5768C10.4389 60.336 10.1769 60.113 9.73997 59.9079C8.95297 59.7385 8.50485 59.6281 8.3956 59.5768C8.36662 59.4966 8.17377 59.3394 7.81706 59.1053C7.78808 59.0251 7.79922 58.9303 7.8505 58.8211C7.82152 58.7408 7.6688 58.5691 7.39234 58.3061C7.36336 58.2258 7.14488 58.1232 6.73688 57.9984C6.73688 57.9984 6.66777 57.9326 6.52954 57.8011C6.36233 57.5893 6.24975 57.4031 6.19178 57.2426C5.84175 57.2783 5.22308 56.8212 4.33575 55.8715C4.11726 55.7689 3.98238 55.7723 3.9311 55.8815C3.92442 55.6118 3.82297 55.3308 3.62678 55.0388C3.51754 54.9875 3.40829 54.9362 3.29905 54.8849C3.16082 54.7534 2.77178 54.3042 2.13193 53.5372C1.93573 53.2452 1.64145 52.8071 1.24906 52.223C0.936934 51.6099 0.809854 51.3836 0.867821 51.5441C0.838838 51.4638 0.821002 51.2888 0.814313 51.0191C0.807624 50.7493 0.815427 50.5197 0.837722 50.3302C0.715101 49.7394 0.570185 49.3381 0.402976 49.1263C0.235766 48.9145 0.108686 48.6882 0.021737 48.4474C0.0730149 48.3381 0.0908496 46.8801 0.0752411 44.0732C0.0195032 42.9139 0.222383 41.8426 0.68388 40.8594C1.29029 40.2775 1.91231 39.2364 2.54994 37.7359C2.6302 37.707 2.81636 37.5944 3.10842 37.3982C3.32022 37.231 3.60893 36.8999 3.97456 36.4049C4.42045 35.881 4.77828 35.6157 5.04805 35.609C4.93211 35.288 4.89979 35.0728 4.95106 34.9636C6.39798 33.4431 7.2017 32.6539 7.36223 32.5959L7.48261 32.5524C7.5116 32.6327 7.60635 32.6438 7.76687 32.5859C7.76687 32.5859 7.85828 32.4621 8.04109 32.2147C8.27519 31.858 8.43236 31.6651 8.51263 31.6361C8.59289 31.6071 8.68764 31.6183 8.79688 31.6696L8.91727 31.6261C9.15805 31.5391 9.23497 31.3753 9.14802 31.1345C9.06776 31.1635 9.01314 31.1378 8.98415 31.0576C8.98415 31.0576 9.10455 31.0141 9.34533 30.9272C9.55713 30.7599 9.88932 30.5493 10.3419 30.2951L12.1377 29.2383C12.7798 29.0065 13.1778 28.7267 13.3316 28.3989C13.5501 28.5015 13.6995 28.5383 13.7797 28.5093C14.2613 28.3354 14.4474 28.2228 14.3382 28.1715L14.492 27.8438C15.5577 27.2775 16.6412 26.8862 17.7426 26.67L18.0703 26.8238L18.1807 26.3757L19.6254 25.854C19.5451 25.883 19.6688 25.9744 19.9966 26.1282L20.2374 26.0413C20.3979 25.9833 20.5439 25.8852 20.6754 25.747C20.778 25.5285 20.8694 25.4048 20.9497 25.3758C21.0299 25.3468 21.2194 25.3691 21.5182 25.4427C21.8972 25.4873 22.1268 25.4951 22.2071 25.4661C22.3676 25.4081 22.4334 25.339 22.4044 25.2587C22.3754 25.1785 22.401 25.1239 22.4813 25.0949L22.6017 25.0514C22.5504 25.1606 22.5649 25.2008 22.6452 25.1718C22.7254 25.1428 22.7912 25.0737 22.8425 24.9644C22.8648 24.7749 22.9161 24.6657 22.9963 24.6367C23.1568 24.5788 23.4266 24.5721 23.8056 24.6166C24.1846 24.6612 24.4544 24.6546 24.6149 24.5966C24.8557 24.5096 24.9326 24.3458 24.8457 24.105L25.3707 24.0515C25.5312 23.9935 25.5825 23.8843 25.5245 23.7238C26.0997 24.0604 26.8288 24.0693 27.7116 23.7505C28.3537 23.5186 28.8754 23.3302 29.2767 23.1853C29.678 23.0404 30.0135 22.9646 30.2833 22.9579C32.7848 22.599 34.1158 22.3905 34.2763 22.3326C34.4368 22.2746 34.4624 22.22 34.3532 22.1687C36.2705 22.2021 37.47 22.1319 37.9515 21.958C38.0318 21.929 38.0574 21.8744 38.0285 21.7941L38.2692 21.7072L39.6805 21.4697L40.162 21.2958C40.307 21.6972 40.434 21.9234 40.5433 21.9747L40.5767 21.6905C41.1163 21.6771 41.5755 21.6927 41.9545 21.7373C42.1953 21.6503 42.2901 21.6615 42.2388 21.7707C42.2388 21.7707 42.144 21.7596 41.9545 21.7373L41.8341 21.7808C41.7539 21.8097 41.6881 21.8789 41.6368 21.9881C41.6658 22.0684 41.6402 22.123 41.5599 22.152C41.4797 22.181 41.3303 22.1442 41.1118 22.0416C40.8933 21.9391 40.7439 21.9023 40.6637 21.9312L39.4263 22.6502C39.2658 22.7082 39.2257 22.7227 39.3059 22.6937L39.4263 22.6502C39.4776 22.541 39.2078 22.5477 38.617 22.6703C38.3473 22.677 37.771 22.8398 36.8881 23.1586C36.8078 23.1876 36.7164 23.3113 36.6139 23.5298C36.5626 23.639 36.4968 23.7081 36.4166 23.7371C35.935 23.911 35.6396 23.9723 35.5303 23.921L35.4969 24.2053L35.9885 24.4361L36.2192 23.9445C36.4377 24.047 36.5871 24.0838 36.6674 24.0548C36.8279 23.9968 36.8535 23.9422 36.7443 23.891C37.072 24.0448 37.5971 23.9913 38.3194 23.7304L38.801 23.5565C38.7497 23.6658 38.7787 23.746 38.8879 23.7973C38.9392 23.6881 39.1253 23.5755 39.4464 23.4595C39.3661 23.4885 39.4754 23.5398 39.7741 23.6134C40.1241 23.5777 40.6492 23.5242 41.3492 23.4529C42.0783 23.4618 42.6836 23.3793 43.1651 23.2054C45.0914 22.5098 46.2763 22.3994 46.72 22.8743L46.9173 22.667C47.2963 22.7116 47.6319 22.6358 47.9239 22.4396C48.3832 22.4552 48.7076 22.4741 48.8971 22.4964C49.0866 22.5187 49.1813 22.5299 49.1813 22.5299L51.228 21.7908L52.365 21.9245C52.8243 21.9402 53.1888 21.9446 53.4586 21.9379C53.7796 21.822 54.0605 21.7206 54.3013 21.6336C54.3816 21.6046 54.4763 21.6158 54.5855 21.667C54.6948 21.7183 54.7895 21.7295 54.8698 21.7005C54.9501 21.6715 54.9757 21.6169 54.9467 21.5366C54.9177 21.4564 54.9434 21.4017 55.0236 21.3728L56.7626 21.2891L57.3646 21.0718C57.4448 21.0428 57.5139 21.1086 57.5719 21.2691C57.6812 21.3204 57.8015 21.2769 57.9331 21.1387L58.3712 20.8444C58.4002 20.9246 58.564 21.0015 58.8628 21.0751L59.0166 20.7474C59.9641 20.8589 60.478 20.9001 60.5583 20.8711C61.2806 20.6103 61.8458 20.5423 62.2538 20.6671C62.6328 20.7117 62.7822 20.7485 62.7019 20.7775C62.8624 20.7195 62.9683 20.6359 63.0196 20.5267L63.3808 20.3962C63.5413 20.3383 63.7709 20.3461 64.0697 20.4197C64.4487 20.4642 64.7184 20.4576 64.879 20.3996C64.9592 20.3706 64.9447 20.3305 64.8355 20.2792C64.7263 20.2279 64.7118 20.1878 64.792 20.1588C64.8723 20.1298 65.0072 20.1265 65.1967 20.1488C65.3862 20.1711 65.5211 20.1677 65.6013 20.1387C66.0026 19.9938 66.3125 19.9726 66.531 20.0752C66.8297 20.1488 67.1396 20.1276 67.4607 20.0117L67.7015 19.9247C67.6725 19.8444 67.6981 19.7898 67.7784 19.7608C67.8586 19.7319 68.008 19.7686 68.2265 19.8712C68.5253 19.9448 68.7148 19.9671 68.795 19.9381L69.8785 19.5468C71.2274 19.5134 71.9018 19.4966 71.9018 19.4966L72.0322 19.8578C72.1414 19.9091 72.2362 19.9202 72.3164 19.8913C72.3164 19.8913 72.3566 19.8768 72.4368 19.8478C72.5171 19.8188 72.5829 19.7497 72.6341 19.6404L73.3565 19.3796L74.6473 19.1856C74.7566 19.2369 74.8959 18.869 75.0654 18.082C75.3151 17.2661 75.4957 16.3843 75.6071 15.4368L75.5202 15.196L75.761 15.1091C75.9438 14.8616 76.1678 14.1002 76.4331 12.825C76.4844 12.7157 76.5357 12.6065 76.587 12.4972C76.6895 12.2788 76.7631 11.98 76.8077 11.601C77.4208 11.2889 77.7318 10.7683 77.7407 10.0393C77.7496 9.31023 77.7875 8.66146 77.8544 8.09295C77.8544 8.09295 77.8689 8.13308 77.8979 8.21334C77.8979 8.21334 77.9525 8.23898 78.0618 8.29026C78.2959 7.93354 78.4385 7.70056 78.4898 7.59132C78.3806 7.54004 78.3661 7.49991 78.4463 7.47092C78.5266 7.44194 78.5411 7.48207 78.4898 7.59132C78.5991 7.6426 78.6938 7.65374 78.7741 7.62476C78.6448 6.76419 78.9056 5.85345 79.5566 4.89255C80.2076 3.93165 80.5699 3.30183 80.6435 3.00309C80.746 2.7846 80.8229 2.62073 80.8742 2.51149C80.9255 2.40225 80.9768 2.293 81.0281 2.18376C81.1306 1.96527 81.3647 1.60856 81.7303 1.11361C82.067 0.538414 82.3412 0.167209 82.553 0C82.7425 0.0222924 83.0413 0.0958649 83.4492 0.220718C83.9085 0.236321 84.2619 0.335532 84.5094 0.518348C84.4581 0.62759 84.4904 0.842733 84.6063 1.16378C84.8248 1.26633 85.0467 1.50377 85.2718 1.87609C85.0154 2.42231 84.3388 3.43783 83.2419 4.92265L82.0982 7.78528C81.989 7.734 81.8541 7.73735 81.6936 7.79531L81.5197 7.31375C81.4104 7.26247 81.484 6.96372 81.7404 6.41751C81.7114 6.33724 81.6423 6.27147 81.533 6.22019C80.8753 6.91133 80.6669 7.21342 80.9077 7.12647C80.8274 7.15546 80.678 7.11867 80.4595 7.01612C80.1296 7.86108 79.8398 8.69156 79.5901 9.50754C79.4206 10.2945 79.2768 11.0269 79.1587 11.7047C78.9981 11.7626 78.8922 11.8462 78.841 11.9555C78.8187 12.145 78.7596 12.4839 78.6637 12.9721C78.6191 13.3511 78.5088 13.7993 78.3326 14.3165L78.3962 15.2462C78.1175 15.9819 77.8633 17.1624 77.6337 18.7877C78.122 18.8835 78.4062 18.917 78.4865 18.888C78.9681 18.7141 79.3181 18.6784 79.5366 18.781C79.8063 18.7743 80.0215 18.742 80.182 18.684C80.7438 18.4811 81.1741 18.4165 81.4728 18.49C81.8229 18.4544 82.1038 18.3529 82.3156 18.1857C82.5118 18.4778 82.7704 18.5658 83.0914 18.4499C83.3322 18.363 83.4782 18.2649 83.5295 18.1556L84.9843 18.0386C85.1738 18.0609 85.4034 18.0687 85.6732 18.062C85.9429 18.0553 86.2528 18.0341 86.6028 17.9984C87.0041 17.8535 87.3397 17.7777 87.6094 17.771C88.3385 17.7799 88.6629 17.7989 88.5826 17.8279C88.5826 17.8279 88.6082 17.7733 88.6595 17.664L88.9872 17.8178C89.5491 17.615 89.7754 17.4879 89.6661 17.4366C89.7464 17.4076 89.976 17.4154 90.355 17.46L90.7162 17.3296C90.6872 17.2493 90.7128 17.1947 90.7931 17.1657L91.7663 17.2226L92.1274 17.0922L93.0571 17.0286L94.0203 16.6808C94.3123 16.4846 94.5787 16.3431 94.8195 16.2561C94.8998 16.2271 94.9544 16.2528 94.9834 16.333C94.9321 16.4423 94.9466 16.4824 95.0269 16.4534C95.6689 16.2215 96.0558 16.0365 96.1873 15.8983L96.515 16.0521C96.6176 15.8336 96.709 15.7099 96.7892 15.6809C96.8695 15.6519 96.9241 15.6776 96.9531 15.7578C97.0624 15.8091 97.1571 15.8202 97.2374 15.7913C97.3176 15.7623 97.3433 15.7077 97.3143 15.6274C97.205 15.5761 97.1905 15.536 97.2708 15.507L97.5116 15.4201C97.6208 15.4713 97.7156 15.4825 97.7958 15.4535L98.157 15.3231L99.0867 15.2595C99.138 15.1503 99.109 15.07 98.9998 15.0188C99.1893 15.041 99.3386 15.0778 99.4479 15.1291C99.6084 15.0711 100.09 14.8972 100.893 14.6074C100.973 14.5784 101.185 14.4112 101.528 14.1058C101.842 13.7201 102.04 13.5127 102.12 13.4838C102.2 13.4548 102.255 13.4804 102.284 13.5607L102.404 13.5172L103.16 12.9721C103.401 12.8852 103.627 12.7581 103.839 12.5909C104.715 12.0023 105.124 11.6277 105.066 11.4672L105.11 11.5876C105.19 11.5586 105.453 11.2822 105.899 10.7582C106.316 10.1541 106.678 9.52423 106.986 8.86877C106.986 8.86877 107.011 8.81415 107.063 8.70491C107.165 8.48642 107.348 8.23895 107.611 7.9625L107.461 6.79203C107.701 6.70508 107.851 6.74186 107.909 6.90239L107.822 6.6616C107.706 6.34056 107.681 5.89578 107.748 5.32727L108.578 6.1165C108.687 6.16778 108.814 6.39407 108.959 6.79537C109.162 7.3572 109.208 7.61247 109.099 7.56119C108.93 8.34819 108.99 9.14299 109.28 9.9456C109.2 9.97458 109.105 9.96343 108.996 9.91216C108.9 10.4004 108.669 10.892 108.303 11.3869C108.018 11.8529 107.835 12.1004 107.755 12.1294L107.514 12.2163C107.273 12.3033 107.196 12.4671 107.283 12.7079C106.16 13.1137 105.605 13.5863 105.618 14.1258L105.17 14.0155L105.213 14.1359C105.024 14.1136 104.809 14.1459 104.568 14.2329C104.407 14.2908 104.276 14.429 104.173 14.6475C104.224 14.5383 104.17 14.5127 104.009 14.5706L103.287 14.8315C103.053 15.1882 102.775 15.4245 102.454 15.5404C102.374 15.5694 102.199 15.5873 101.929 15.5939C101.74 15.5717 101.284 15.6909 100.561 15.9518C100.642 15.9228 100.525 16.1012 100.21 16.4868L99.8492 16.6173C99.3319 16.4411 99.0733 16.3531 99.0733 16.3531C98.7523 16.469 98.4346 16.7198 98.1202 17.1055L97.7925 16.9517L97.6821 17.3998L97.3544 17.246C96.7636 17.3686 96.1327 17.5057 95.4616 17.6573C94.8708 17.7799 94.2399 17.9171 93.5688 18.0687C93.4662 18.2871 93.415 18.3964 93.415 18.3964L93.2511 18.3195L92.9769 18.6907C92.9479 18.6104 92.959 18.5157 93.0103 18.4064C91.8733 18.2727 90.9035 18.3507 90.1009 18.6405C89.9403 18.6985 89.8746 18.7676 89.9036 18.8479C89.9325 18.9281 89.947 18.9683 89.947 18.9683L89.8266 19.0117C89.8266 19.0117 89.8523 18.9571 89.9036 18.8479C89.6048 18.7743 88.8646 18.8601 87.683 19.1054C87.5738 19.0541 87.3988 19.0719 87.158 19.1589C86.9172 19.2458 86.6218 19.3071 86.2718 19.3428C86.2138 19.1823 86.1302 19.0764 86.021 19.0251L85.8671 19.3528L83.9308 19.6438C83.7123 19.5412 83.563 19.5044 83.4827 19.5334L83.3623 19.5769C83.3913 19.6572 83.3657 19.7118 83.2854 19.7408C83.0446 19.8277 82.8261 19.7252 82.6299 19.4331C82.5497 19.4621 82.4438 19.5457 82.3122 19.6839C82.261 19.7932 82.1952 19.8623 82.1149 19.8913C82.0347 19.9202 81.8597 19.9381 81.5899 19.9448C81.2911 19.8712 81.1016 19.8489 81.0214 19.8779C80.9411 19.9069 80.8753 19.976 80.8241 20.0852L80.7037 20.1287C80.6234 20.1577 80.4596 20.0808 80.2121 19.8979L80.0148 20.1053L79.4028 19.918L79.162 20.005C79.191 20.0852 79.1654 20.1398 79.0851 20.1688C78.7574 20.015 78.1922 20.083 77.3896 20.3728C77.3093 20.4018 77.1421 21.8231 76.888 24.6367C76.694 26.612 76.597 27.5996 76.597 27.5996L76.1088 30.7699C76.0062 30.9884 76.0787 31.1891 76.3261 31.3719C76.0631 31.6483 76.0073 32.1221 76.1589 32.7932L75.9282 33.2847L75.868 35.7561C75.868 35.7561 75.7498 36.4339 75.5135 37.7894L75.5536 39.408L75.0186 43.9561C74.9963 44.1456 75.003 44.4153 75.0386 44.7654C75.0743 45.1154 75.1245 45.5055 75.1891 45.9358C74.8815 46.5913 74.7198 47.1487 74.7042 47.6079C74.7667 49.037 74.7633 50.5352 74.6942 52.1025C74.5961 53.5896 74.3776 55.1201 74.0387 56.6941C74.0164 56.8836 73.9942 57.0731 73.9719 57.2626C74.0298 57.4231 74.0075 57.6126 73.905 57.8311L73.7043 64.4359C73.4123 64.6321 73.3677 65.0111 73.5706 65.5729C73.526 65.9519 73.4558 66.3856 73.3599 66.8738C73.264 67.3621 73.1971 67.9306 73.1592 68.5794C73.0767 69.6071 72.9318 70.8389 72.7245 72.2747C72.4882 73.6302 72.2151 75.1351 71.9052 76.7893C71.8026 77.0078 71.6889 77.3211 71.5641 77.7291C71.5195 78.1081 71.4091 78.5562 71.233 79.0734C71.2687 79.4235 71.2241 79.8025 71.0992 80.2104C71.0546 80.5895 70.9844 81.0231 70.8885 81.5113C70.8662 81.7008 70.5731 82.3964 70.009 83.5981C70.0447 83.9481 69.8284 84.4799 69.3602 85.1933C69.3892 85.2736 69.513 85.365 69.7315 85.4675L69.8853 85.1398L70.213 85.2936C70.2643 85.1844 70.4906 85.0573 70.8919 84.9124C70.9721 84.8834 71.1616 84.9057 71.4604 84.9793C71.8394 85.0239 72.069 85.0317 72.1493 85.0027C72.2296 84.9737 72.3355 84.8901 72.467 84.7519C72.6788 84.5847 72.865 84.4721 73.0255 84.4141C73.1057 84.3851 73.2005 84.3963 73.3097 84.4475C74.3464 83.801 75.3062 83.3183 76.1891 82.9995C76.3496 82.9415 76.5246 82.9237 76.7141 82.946L77.1957 82.7721C77.4365 82.6851 77.6739 82.4633 77.908 82.1066C77.937 82.1869 78.1956 82.2749 78.6839 82.3708L78.8143 82.732C78.3394 83.1756 78.0217 83.4264 77.8612 83.4844C77.7007 83.5424 77.6059 83.5312 77.5769 83.451C77.6282 83.3417 77.6137 83.3016 77.5334 83.3306L75.6172 84.4308L72.2463 85.6481C72.166 85.6771 72.0311 85.6804 71.8416 85.6581C71.7324 85.6069 71.6376 85.5957 71.5574 85.6247C71.4771 85.6537 71.4114 85.7228 71.3601 85.832C71.3891 85.9123 71.3634 85.9669 71.2832 85.9959C71.2029 86.0249 71.068 86.0282 70.8785 86.0059C70.7693 85.9547 70.6745 85.9435 70.5943 85.9725L69.8385 86.5176C69.7582 86.5466 69.7036 86.5209 69.6746 86.4407C69.7259 86.3314 69.7114 86.2913 69.6311 86.3203L69.1496 86.4942C68.8865 86.7706 68.7438 87.0036 68.7215 87.1931L67.2935 90.0223C67.1397 90.35 66.8254 90.7357 66.3505 91.1794C65.9113 91.9731 65.063 93.1413 63.8056 94.6841L63.6852 94.7276C63.4444 94.8145 63.1155 95.1601 62.6986 95.7643C62.362 96.3395 62.0621 96.7653 61.799 97.0418L61.0767 97.3026C61.0767 97.3026 60.8905 97.4152 60.5182 97.6404C60.2551 97.9168 60.0433 98.0841 59.8828 98.142L59.642 98.229C59.6131 98.1487 59.5584 98.1231 59.4782 98.1521C58.7558 98.4129 57.8429 99.1509 56.7393 100.366C56.6233 100.045 56.445 99.9278 56.2042 100.015C56.2845 99.9858 56.1529 100.124 55.8096 100.429C55.4663 100.735 55.3347 100.873 55.415 100.844ZM44.3055 21.841C43.7437 22.0438 43.1785 22.1118 42.61 22.0449C42.581 21.9647 42.5119 21.8989 42.4027 21.8476C42.5052 21.6292 42.5966 21.5054 42.6769 21.4764L44.0112 21.4029L44.6667 21.7105L44.3055 21.841ZM45.0713 21.7005L44.6566 21.3059L44.8974 21.2189L45.3121 21.6135L45.0713 21.7005ZM0.021737 48.4474C-0.00724567 48.3671 -0.00724567 48.3671 0.021737 48.4474ZM38.3897 65.7569C38.3897 65.7569 38.2548 65.7602 37.985 65.7669C37.7665 65.6644 37.6283 65.5328 37.5703 65.3723C37.9493 65.4169 38.2592 65.3957 38.5 65.3088C38.587 65.5495 38.5502 65.6989 38.3897 65.7569ZM52.84 98.2357C53.0005 98.1777 53.1465 98.0796 53.278 97.9414L53.88 97.724C53.9603 97.695 54.055 97.7062 54.1642 97.7574L54.2846 97.714C54.9267 97.4821 55.7483 96.8679 56.7493 95.8713C57.8306 94.8458 59.1348 93.5583 60.662 92.0088C60.6553 91.739 60.7579 91.5205 60.9697 91.3533C61.1748 90.9163 61.4055 90.4247 61.6619 89.8785C61.9986 89.3033 62.3865 88.6189 62.8257 87.8252L62.3776 87.7148C62.4355 87.8753 62.4244 87.9701 62.3441 87.9991C62.1836 88.0571 62.0086 88.0749 61.8191 88.0526C61.6006 87.95 61.4512 87.9132 61.371 87.9422L61.0533 88.193C60.8928 88.251 60.7579 88.2544 60.6486 88.2031L60.2875 88.3335L57.2141 88.4907C57.1339 88.5197 57.0681 88.5888 57.0168 88.698L56.8964 88.7415C56.8162 88.7705 56.6412 88.7883 56.3714 88.795C56.0727 88.7214 55.8832 88.6991 55.8029 88.7281L55.6825 88.7716C55.7115 88.8519 55.6457 88.921 55.4852 88.9789C55.4049 89.0079 55.0806 88.989 54.512 88.9221C54.0238 88.8262 53.7395 88.7928 53.6593 88.8218C53.579 88.8507 53.5534 88.9054 53.5824 88.9856L53.462 89.0291C52.0975 89.5218 50.9639 89.5229 50.0609 89.0324C50.1189 89.193 50.1077 89.2877 50.0275 89.3167C49.9472 89.3457 49.7176 89.3379 49.3386 89.2933C48.9596 89.2487 48.7299 89.2409 48.6497 89.2699L48.4089 89.3568C48.4379 89.4371 48.4122 89.4917 48.332 89.5207C48.2517 89.5497 48.0221 89.5419 47.6431 89.4973C47.2641 89.4527 47.0344 89.4449 46.9542 89.4739L46.8338 89.5174C46.7825 89.6266 46.7167 89.6957 46.6365 89.7247C46.5562 89.7537 46.3266 89.7459 45.9476 89.7013C45.6488 89.6277 45.4593 89.6054 45.3791 89.6344C45.2185 89.6924 45.1929 89.747 45.3021 89.7983L45.1817 89.8418L44.2855 89.621C44.1763 89.5698 44.0012 89.5876 43.7605 89.6745C43.5999 89.7325 43.3848 89.7648 43.115 89.7715C42.1965 89.7403 41.6168 89.7682 41.3761 89.8551C41.1865 89.8328 41.0517 89.8362 40.9714 89.8652L39.112 89.9922C39.0541 89.8317 38.985 89.766 38.9047 89.7949C38.8244 89.8239 38.7988 89.8785 38.8278 89.9588L38.587 90.0458C38.6896 89.8273 38.3763 89.7136 37.6473 89.7046C37.8791 90.3467 38.4387 91.1427 39.3261 92.0924C39.3261 92.0924 39.2859 92.1069 39.2057 92.1359C39.2057 92.1359 39.18 92.1905 39.1288 92.2997C39.4632 92.7233 39.8779 93.118 40.3728 93.4836C40.3728 93.4836 40.4018 93.5638 40.4597 93.7244C40.4887 93.8046 40.5066 93.9796 40.5133 94.2494C40.6738 94.1914 40.8633 94.2137 41.0818 94.3163C40.9792 94.5348 40.9424 94.6841 40.9714 94.7644L43.1552 96.2894C43.2131 96.4499 43.3803 96.6617 43.6568 96.9248C45.1862 97.6426 45.991 97.9871 46.0713 97.9581C46.2318 97.9001 46.3667 97.8968 46.476 97.9481L46.7167 97.8611L46.8906 98.3427L47.011 98.2992C47.0623 98.19 47.1281 98.1208 47.2083 98.0919C47.7835 98.4285 48.1514 98.5679 48.3119 98.5099C48.3922 98.4809 48.3777 98.4408 48.2684 98.3895C48.2395 98.3092 48.2651 98.2546 48.3454 98.2256C48.4256 98.1966 48.575 98.2334 48.7935 98.336C49.0409 98.5188 49.2048 98.5957 49.2851 98.5667C49.5259 98.4798 49.6719 98.3817 49.7232 98.2725C50.1601 98.4776 50.3786 98.5801 50.3786 98.5801L50.499 98.5366C50.47 98.4564 50.4957 98.4018 50.5759 98.3728C50.6562 98.3438 50.7108 98.3694 50.7398 98.4497C50.878 98.5812 50.9873 98.6325 51.0675 98.6035L51.6695 98.3862L52.84 98.2357Z" fill="black"/>
    <path d="M169.909 102.895C169.833 102.933 169.642 102.931 169.337 102.891C169.032 102.851 168.803 102.868 168.65 102.943L168.305 103.113C168.266 103.227 168.17 103.322 168.017 103.397C167.372 102.858 166.649 102.548 165.848 102.466C165.657 102.465 165.332 102.577 164.873 102.803C163.96 102.3 162.778 102.12 161.327 102.263C161.327 102.263 161.308 102.225 161.271 102.148C161.271 102.148 161.29 102.091 161.329 101.977C160.91 101.897 160.7 101.858 160.7 101.858C160.624 101.896 160.604 101.953 160.642 102.029L160.527 102.086C160.297 102.199 159.326 101.867 157.614 101.092C157.539 100.939 157.982 100.293 158.944 99.1552C158.563 99.1525 158.162 99.1116 157.743 99.0324C157.438 98.9921 157.019 98.9129 156.485 98.7947C156.069 98.3338 155.289 98.004 154.145 97.8053C153.116 97.6455 152.562 97.6798 152.484 97.9082L150.535 98.2954C150.46 98.1422 150.27 98.0455 149.965 98.0052C149.66 97.965 149.546 97.926 149.622 97.8884C149.469 97.9636 149.411 98.0396 149.449 98.1161C149.487 98.1927 149.467 98.2498 149.391 98.2875C149.237 98.3627 148.588 98.4918 147.442 98.6747C146.41 98.8965 145.855 99.0262 145.779 99.0638C145.779 99.0638 145.663 99.2157 145.432 99.5194L143.148 98.6449C142.764 99.0238 142.649 99.1757 142.802 99.1004C142.649 99.1757 142.286 99.1159 141.715 98.9211C141.182 98.803 140.877 98.7627 140.8 98.8003C140.647 98.8756 140.589 98.9515 140.627 99.0281C140.741 99.067 140.76 99.1053 140.683 99.143C140.607 99.1806 140.397 99.141 140.055 99.0241C139.749 98.9838 139.559 98.9825 139.482 99.0201L139.023 99.2459C138.985 99.1693 138.986 99.0739 139.025 98.9597C138.796 98.8818 138.644 98.8617 138.567 98.8993C138.108 99.1251 137.515 99.2736 136.789 99.3449C135.835 99.3383 134.805 99.3693 133.697 99.438C132.59 99.5066 131.349 99.5934 129.975 99.6983C120.084 100.66 114.679 101.367 113.76 101.818L113.069 102.443L112.956 102.214C112.042 101.902 111.508 101.784 111.355 101.859C111.049 102.009 110.857 102.199 110.779 102.427C109.481 102.495 108.832 102.433 108.834 102.242C108.795 102.356 108.794 102.452 108.832 102.528C107.954 102.484 107.174 102.25 106.49 101.825C106.259 102.129 106.143 102.281 106.143 102.281C105.99 102.356 105.856 102.374 105.742 102.335C105.704 102.259 105.647 102.239 105.571 102.277C105.417 102.352 105.225 102.637 104.992 103.131C104.722 103.549 104.511 103.796 104.357 103.871C104.281 103.909 104.013 103.945 103.555 103.98C103.136 103.901 102.888 103.88 102.811 103.918L102.408 104.258C101.876 103.949 101.381 103.812 100.923 103.847C100.885 103.771 100.79 103.77 100.637 103.845C100.484 103.921 100.445 104.035 100.52 104.188C100.557 104.265 100.5 104.341 100.347 104.416C100.27 104.453 100.213 104.434 100.175 104.357C100.1 104.204 100.024 104.146 99.9474 104.184C99.7942 104.259 99.717 104.392 99.7157 104.583C99.7533 104.66 99.7338 104.717 99.6572 104.754C98.245 104.783 97.1559 104.985 96.3901 105.361C96.3135 105.399 96.2362 105.532 96.1583 105.761C95.9299 105.683 95.6443 105.585 95.3017 105.468C94.9214 105.275 94.5781 105.254 94.2717 105.404L93.5804 106.029L93.2358 106.198C93.1592 106.236 93.006 106.311 92.7763 106.424C92.6231 106.499 92.4128 106.555 92.1454 106.591L91.9701 107.105C91.5898 106.912 91.0187 106.717 90.2568 106.521C90.1413 106.673 89.9277 107.206 89.6161 108.119C89.5771 108.234 89.5758 108.425 89.6121 108.692C89.6108 108.883 89.5899 109.131 89.5497 109.436C89.277 110.235 88.9848 111.092 88.6732 112.006C88.4005 112.805 88.3582 113.396 88.5464 113.779C88.3542 113.969 88.1809 114.197 88.0264 114.463C87.9861 114.768 87.927 115.034 87.8491 115.263C87.9244 115.416 87.8821 116.007 87.7223 117.037C87.5302 117.226 87.4153 117.282 87.3777 117.206C87.4543 117.168 87.4147 117.378 87.2588 117.835C87.1796 118.254 86.7524 119.32 85.9773 121.032C85.9383 121.146 85.7267 121.392 85.3425 121.771L84.4095 124.226C84.2174 124.416 84.1213 124.511 84.1213 124.511L82.8457 126.849L82.1019 126.786C82.0254 126.824 81.9676 126.9 81.9286 127.014C81.9273 127.205 81.8883 127.319 81.8118 127.357C81.7352 127.394 81.6592 127.337 81.584 127.183C81.4698 127.145 81.3744 127.144 81.2978 127.181C81.451 127.106 81.3347 127.353 80.9492 127.923L79.5201 127.627L79.0002 128.31C79.0002 128.31 78.7529 128.194 78.2584 127.962C77.7639 127.729 77.44 127.651 77.2869 127.726C77.2492 127.65 77.2694 127.497 77.3473 127.269L76.664 126.749L76.4946 126.404C76.3817 126.174 76.1741 125.848 75.8717 125.426C75.607 125.081 75.228 124.697 74.7348 124.274C74.5467 123.891 74.5117 123.433 74.6299 122.899C74.8623 122.405 74.9032 122.004 74.7527 121.698L76.1837 121.708C76.259 121.861 76.3531 122.052 76.466 122.282C76.5789 122.512 76.7489 122.761 76.976 123.03C78 123.953 78.9702 124.379 79.8866 124.309C80.0008 124.348 80.1715 124.502 80.3986 124.771C80.7023 125.002 80.8924 125.099 80.969 125.061C81.1222 124.986 81.1417 124.929 81.0275 124.89L81.1423 124.833L81.7712 124.952C81.7362 124.494 81.8719 124.19 82.1783 124.039C82.2548 124.002 82.3119 124.021 82.3496 124.098C82.3872 124.174 82.4826 124.175 82.6358 124.1C82.7124 124.062 82.7916 123.643 82.8735 122.842C83.0696 122.08 83.2059 121.68 83.2825 121.643C83.3591 121.605 83.4162 121.624 83.4539 121.701L83.5687 121.645C83.4922 121.682 83.8824 120.445 84.7394 117.932L85.0395 115.93C85.1927 115.855 85.6192 114.885 86.3191 113.02L85.8675 112.101C85.9857 111.567 86.0663 110.957 86.1092 110.27C86.2287 109.546 86.406 108.746 86.6411 107.87C86.3347 108.02 86.0472 108.209 85.7785 108.436C85.5097 108.663 85.3371 108.796 85.2605 108.833C85.1839 108.871 85.1268 108.852 85.0892 108.775C85.0139 108.622 84.8997 108.583 84.7465 108.658C84.7465 108.658 84.727 108.715 84.6881 108.829C84.6115 108.867 84.5154 108.962 84.3999 109.114L83.9404 109.339C83.4808 109.565 82.85 109.733 82.0478 109.842L81.7032 110.011C81.6266 110.049 81.511 110.2 81.3565 110.466C81.2786 110.695 81.1631 110.847 81.0099 110.922L79.8611 111.486C79.7845 111.524 79.7274 111.505 79.6898 111.428C79.6145 111.275 79.5386 111.217 79.462 111.255C79.3088 111.33 78.8674 111.689 78.1379 112.333C77.4849 112.939 77.0818 113.28 76.9286 113.355C76.852 113.393 76.7566 113.392 76.6424 113.353C76.5282 113.314 76.4328 113.314 76.3562 113.351L75.5501 114.033C75.5111 114.147 75.4527 114.318 75.3748 114.547C75.2968 114.775 75.1813 114.927 75.0281 115.002L74.9132 115.059C74.8756 114.982 74.7802 114.981 74.627 115.057C74.5504 115.094 74.4349 115.246 74.2804 115.512C74.2025 115.741 74.1252 115.874 74.0487 115.911C73.8955 115.986 73.8001 115.986 73.7625 115.909L73.4178 116.079C73.4554 116.155 73.3977 116.231 73.2445 116.306L72.5592 116.073C72.5202 116.187 72.4228 116.472 72.267 116.929C72.1878 117.349 71.9574 117.557 71.5757 117.554C71.5744 117.745 71.5731 117.936 71.5718 118.127C71.647 118.28 71.7223 118.433 71.7976 118.586L72.0253 118.759C72.1019 118.722 72.2544 118.742 72.4829 118.82L73.2385 117.165C73.2385 117.165 73.7519 117.436 74.7785 117.977L74.2546 119.233C73.7977 119.077 73.3778 119.093 72.9949 119.281C72.9183 119.319 72.6482 119.737 72.1847 120.535C71.7602 121.219 71.5096 121.58 71.4331 121.618C71.3565 121.655 71.2611 121.655 71.1468 121.616C70.995 121.5 70.8808 121.461 70.8042 121.499C70.7276 121.536 70.6698 121.612 70.6309 121.726C70.6685 121.803 70.6107 121.879 70.4576 121.954L70 121.894L68.9661 122.402C68.8895 122.439 68.8888 122.535 68.9641 122.688C69.0017 122.765 68.944 122.841 68.7908 122.916C68.7142 122.953 68.6188 122.953 68.5046 122.914C68.4669 122.837 68.4098 122.818 68.3332 122.855C67.9503 123.044 67.7374 123.481 67.6944 124.168C67.3518 124.051 67.0656 124.049 66.8358 124.162C66.6061 124.275 66.4133 124.559 66.2574 125.016L65.6286 124.897C65.552 124.935 65.5325 124.992 65.5701 125.069L65.4553 125.125L64.7699 124.891C64.387 125.08 63.9496 124.867 63.4577 124.253L62.6071 123.102L62.1555 122.183L62.2763 121.268C62.858 119.936 63.2637 119.214 63.4935 119.101C63.6467 119.026 63.857 118.97 64.1244 118.934L64.5839 118.708C64.7371 118.633 64.9097 118.5 65.1018 118.311C65.2563 118.045 65.3719 117.893 65.4485 117.855C65.3719 117.893 65.3524 117.95 65.39 118.026C65.4666 117.989 65.5244 117.913 65.5633 117.799L65.4485 117.855C65.3329 118.007 65.466 118.084 65.8476 118.087C67.1535 116.875 67.7682 116.287 67.6916 116.325L67.8065 116.269C67.8441 116.345 67.9012 116.365 67.9778 116.327C68.131 116.252 68.2466 116.1 68.3245 115.871C68.479 115.605 68.6328 115.435 68.786 115.359C69.1689 115.171 69.6667 114.927 70.2794 114.626C70.9311 114.21 71.621 113.776 72.3493 113.323L73.3287 112.414C73.4819 112.339 73.539 112.359 73.5001 112.473C73.4611 112.587 73.4799 112.625 73.5565 112.588L74.7053 112.023C74.8585 111.948 75.0312 111.815 75.2233 111.626C75.3778 111.36 75.4933 111.208 75.5699 111.17C75.7231 111.095 75.7802 111.115 75.7412 111.229C75.7023 111.343 75.7211 111.381 75.7977 111.344L77.6358 110.441L77.924 110.156C78.0772 110.081 78.364 109.988 78.7846 109.876C79.2818 109.727 79.5686 109.634 79.6452 109.596C79.7218 109.558 79.8562 109.445 80.0483 109.255C80.317 109.028 80.528 108.877 80.6811 108.802L81.1951 108.977C81.4638 108.75 81.6748 108.599 81.828 108.523C82.0577 108.41 82.1921 108.297 82.231 108.183L82.5737 108.3C82.7269 108.224 82.9566 108.111 83.263 107.961C83.5317 107.734 83.8387 107.488 84.184 107.223C83.9166 107.259 84.051 107.146 84.5871 106.882C84.6637 106.845 84.8162 106.865 85.0446 106.943C85.2354 106.944 85.3691 106.926 85.4457 106.888C85.5223 106.851 85.5418 106.794 85.5042 106.717C85.5431 106.603 85.6009 106.527 85.6775 106.489C85.7541 106.452 85.8495 106.452 85.9637 106.491C86.0779 106.53 86.1733 106.531 86.2499 106.493C86.3265 106.456 86.5569 106.247 86.9412 105.868C87.0647 104.572 87.1498 103.294 87.1967 102.035C87.2436 100.776 87.2523 99.5354 87.2226 98.314C87.3018 97.8948 87.381 97.4755 87.4603 97.0563C87.5019 96.5605 87.4676 96.0069 87.3573 95.3955C87.626 95.1684 87.7053 94.7491 87.595 94.1377C87.7482 94.0625 87.8637 93.9106 87.9417 93.6822C88.0585 93.3395 87.9476 92.8236 87.6089 92.1343C87.9245 90.6481 87.9117 89.7512 87.5704 89.4435L88.2231 86.1278C87.9207 85.7059 87.7325 85.323 87.6586 84.979C87.7352 84.9414 87.7936 84.7701 87.8339 84.465C87.8742 84.16 88.0092 83.9511 88.2389 83.8382C88.3155 83.8005 88.4109 83.8012 88.5251 83.8401C88.1865 83.1509 88.0178 82.7108 88.0191 82.52C87.8296 82.3279 87.6972 82.1552 87.622 82.002L87.6279 81.1434C87.8967 80.9163 88.07 80.6885 88.1479 80.4601C88.3024 80.194 88.4186 79.9468 88.4965 79.7183C88.4965 79.7183 88.442 79.3172 88.3331 78.5151C88.3008 77.6752 88.4378 77.1801 88.7441 77.0295C88.6339 76.4182 88.8145 75.141 89.2859 73.1979L89.0176 70.62C89.6732 69.6323 89.7175 68.7549 89.1504 67.9877C89.2699 67.2634 89.427 66.6157 89.6218 66.0446C89.8555 65.3593 90.1464 64.6935 90.4943 64.0471L90.5003 63.1885C90.3861 63.1495 90.29 63.2443 90.2121 63.4727L90.1052 62.3843C90.1052 62.3843 90.1616 62.4992 90.2745 62.729C90.3874 62.9587 90.5023 62.9023 90.6191 62.5596C90.6594 62.2546 90.5653 62.0631 90.3369 61.9852C90.4927 61.5284 90.4564 61.261 90.228 61.1831C90.1904 61.1065 90.1715 61.0682 90.1715 61.0682L90.228 61.1831C90.3046 61.1454 90.4194 61.089 90.5726 61.0137C90.879 60.8632 90.9193 60.5582 90.6935 60.0986C90.6182 59.9455 90.506 59.6203 90.3568 59.1231C90.2076 58.626 90.1336 58.282 90.1349 58.0912C90.1726 58.1678 90.3432 58.3216 90.6469 58.5527C90.6483 58.3619 90.6691 58.114 90.7094 57.809C90.7496 57.5039 90.7711 57.1606 90.7737 56.779L91.2412 55.4084C91.2062 54.9502 91.1504 54.7399 91.0739 54.7775C91.2284 54.5114 91.442 53.9786 91.7146 53.1791C91.716 52.9883 91.679 52.8163 91.6037 52.6631C91.4908 52.4334 91.3974 52.1465 91.3235 51.8025C91.7091 51.2327 91.8266 50.7947 91.6761 50.4883C91.9837 50.147 92.235 49.6908 92.4297 49.1197C92.2779 49.0041 92.1643 48.8698 92.0891 48.7166C92.0138 48.5634 91.8814 48.3908 91.692 48.1987C91.7309 48.0844 91.7316 47.989 91.6939 47.9124C91.6187 47.7593 91.6005 47.6256 91.6395 47.5114C92.9428 46.6808 93.3881 45.7489 92.9755 44.7156L94.0214 42.4904C94.0993 42.2619 94.0428 42.147 93.852 42.1457C94.0818 42.0328 94.1046 41.4987 93.9204 40.5433C94.3073 39.7828 94.7117 39.2513 95.1336 38.9489C95.1323 39.1397 95.2835 39.3506 95.5872 39.5817C95.6274 39.2767 95.6872 38.9146 95.7664 38.4953C95.8846 37.9619 96.0223 37.3713 96.1794 36.7236C96.0652 36.6847 95.9886 36.7223 95.9497 36.8365C95.912 36.7599 95.8556 36.645 95.7803 36.4919C95.7051 36.3387 95.6305 36.0901 95.5565 35.7461L96.0161 35.5203C96.1692 35.4451 96.3042 35.2361 96.4211 34.8935C96.5769 34.4366 96.7314 34.1705 96.8846 34.0952L97.0559 34.1537L96.6044 33.2346C96.7212 32.892 96.8556 32.7784 97.0074 32.894C97.0853 32.6655 97.1444 32.3988 97.1847 32.0938C97.3016 31.7511 97.4379 31.3513 97.5938 30.8945C98.0909 30.7453 98.3395 30.6707 98.3395 30.6707C98.4161 30.633 98.5686 30.6532 98.797 30.7311C98.9608 29.1294 98.9661 28.3661 98.8129 28.4414C99.2724 28.2156 99.5593 28.1222 99.6735 28.1611C99.8307 27.5135 99.9475 27.1708 100.024 27.1332C99.9475 27.1708 100.138 27.2675 100.595 27.4234C100.984 26.2812 101.141 25.7289 101.064 25.7665L101.294 25.6536C101.331 25.7302 101.389 25.7497 101.465 25.7121C101.618 25.6368 101.715 25.4466 101.755 25.1416C101.796 24.8366 101.892 24.6465 102.045 24.5712C102.236 24.5725 102.37 24.5544 102.447 24.5167C102.486 24.4025 102.391 24.3064 102.162 24.2285C102.584 23.9262 103.105 23.1474 103.724 21.8923C103.801 21.8547 103.992 21.7606 104.299 21.6101C104.682 21.4219 105.161 21.139 105.736 20.7614C106.006 20.3435 106.122 20.0962 106.084 20.0196L106.141 20.1345L106.256 20.0781C106.332 20.0404 106.39 19.9645 106.429 19.8503C106.544 19.6984 106.679 19.5849 106.832 19.5096C106.755 19.5473 107.389 18.9029 108.734 17.5765C109.503 16.8186 110.232 16.2703 110.921 15.9316C110.998 15.894 111.055 15.9134 111.092 15.99C111.053 16.1042 111.072 16.1425 111.149 16.1049C111.225 16.0673 111.36 15.9537 111.552 15.7642C111.783 15.4605 111.937 15.2899 112.013 15.2522C112.09 15.2146 112.243 15.2347 112.471 15.3126C112.738 15.2763 112.91 15.2394 112.987 15.2017C113.14 15.1265 113.314 14.8033 113.509 14.2322C113.739 14.1193 114.084 13.8546 114.545 13.438C115.082 12.9837 115.389 12.7378 115.466 12.7002C115.542 12.6625 115.657 12.7015 115.809 12.817C115.999 12.8184 116.133 12.8002 116.21 12.7626C116.286 12.7249 116.306 12.6678 116.268 12.5912C116.269 12.4004 116.308 12.2862 116.385 12.2486C116.462 12.211 116.633 12.2694 116.899 12.4239C117.165 12.5784 117.336 12.6368 117.413 12.5992L118.677 11.9783L119.019 12.0951C119.172 12.0199 119.306 12.0017 119.42 12.0407L119.995 11.7584C120.034 11.6442 120.091 11.5683 120.168 11.5307C120.321 11.4554 120.512 11.4567 120.74 11.5346C121.008 11.4983 121.18 11.4614 121.256 11.4237L121.486 11.3108C121.525 11.1966 121.583 11.1207 121.66 11.0831C121.813 11.0078 122.022 11.0474 122.288 11.2019C122.593 11.2422 122.823 11.2247 122.976 11.1494C123.052 11.1118 123.072 11.0547 123.034 10.9781L123.149 10.9217C123.377 10.9996 123.625 11.1158 123.891 11.2703C124.157 11.4248 124.71 11.3904 125.552 11.1673C125.628 11.1297 125.742 11.1686 125.894 11.2842C126.046 11.3997 126.16 11.4387 126.237 11.401C126.352 11.2492 126.449 11.1545 126.525 11.1168C126.639 11.1558 126.886 11.3674 127.265 11.7516C128.106 11.5285 128.773 11.6285 129.266 12.0518C129.798 12.3608 130.237 12.4783 130.581 12.4044L130.524 12.2895L131.659 13.7285C131.924 14.0738 132.245 14.5339 132.623 15.109C132.963 15.6075 133.397 16.202 133.927 16.8927C133.849 17.1211 133.733 17.2729 133.58 17.3482L134.639 21.5344C135.195 23.8281 135.296 25.8705 134.94 27.6617L134.525 29.7196C134.904 30.1039 135.054 30.5056 134.974 30.9249C134.774 32.2592 134.33 33.0957 133.64 33.4344C133.487 33.5097 133.353 33.5278 133.239 33.4888L132.895 33.6582C132.934 33.544 132.878 33.3337 132.727 33.0273C133.115 32.076 133.159 31.2939 132.858 30.6812L133.092 29.9959L132.866 29.5364C133.255 28.3942 133.187 27.287 132.66 26.2148C132.966 26.0642 133.178 25.8176 133.295 25.475C132.689 24.822 132.329 24.476 132.214 24.4371C132.216 24.2463 132.256 23.9412 132.335 23.522C132.491 23.0651 132.398 22.6828 132.057 22.3752C131.943 22.3362 131.809 22.3544 131.656 22.4296C131.659 22.048 131.756 21.7625 131.948 21.573L131.67 20.4262L130.472 19.7309L130.881 18.5316C130.809 17.9968 130.582 17.7281 130.2 17.7255L130.375 17.2115C130.187 16.8285 129.997 16.7318 129.805 16.9213C129.652 16.9966 129.423 16.9187 129.12 16.6876C128.816 16.4565 128.363 15.7282 127.761 14.5028C127.304 14.347 126.943 14.0964 126.679 13.7511L126.562 14.0938L126.054 13.0599L125.993 13.5174C125.726 13.5537 125.44 13.4563 125.137 13.2252C124.909 12.9565 124.758 12.841 124.681 12.8786L124.566 12.9351C124.604 13.0116 124.584 13.0688 124.508 13.1064C124.355 13.1816 124.05 13.1414 123.593 12.9855C123.136 12.8297 122.869 12.7706 122.792 12.8083C122.639 12.8835 122.582 12.9594 122.619 13.036C122.657 13.1126 122.599 13.1885 122.446 13.2638C122.369 13.3014 122.236 13.3196 122.045 13.3183C121.931 13.2793 121.835 13.2787 121.759 13.3163C121.605 13.3915 121.548 13.4675 121.585 13.5441C121.623 13.6207 121.603 13.6778 121.527 13.7154L121.182 13.8847C121.068 13.8458 120.934 13.8639 120.781 13.9392C120.628 14.0145 120.437 14.0131 120.209 13.9352L120.092 14.2779C119.02 14.8047 118.503 15.011 118.542 14.8968C117.853 15.2355 117.218 15.8799 116.639 16.8299C116.45 16.6378 116.164 16.6358 115.781 16.824L115.666 16.8804C115.359 17.0309 115.204 17.3924 115.2 17.9648C115.047 18.0401 114.856 18.0388 114.628 17.9609C114.283 18.2256 113.82 18.833 113.241 19.7831C112.739 20.6955 112.335 21.227 112.028 21.3775L111.454 21.6598C111.454 21.6598 111.225 21.5818 110.769 21.426C110.531 22.6838 110.374 23.3314 110.297 23.3691C110.22 23.4067 109.99 23.615 109.606 23.994C109.531 23.8408 109.379 23.7252 109.15 23.6473C109.072 23.8758 108.975 24.1613 108.858 24.504C108.704 24.77 108.354 25.7026 107.808 27.3017C107.083 27.373 106.663 27.3891 106.549 27.3502C106.358 27.3489 106.241 27.6915 106.198 28.3782C106.194 28.9506 106.153 29.351 106.075 29.5794C106.152 29.5418 106.152 29.5418 106.075 29.5794C106.037 29.5029 105.962 29.4451 105.847 29.4061C105.464 29.5943 105.177 29.7831 104.985 29.9726C105.02 30.4308 104.805 31.059 104.342 31.8572L103.884 31.7968L103.361 33.0525C103.475 33.0915 103.664 33.379 103.927 33.9151C102.692 35.8529 102.228 36.7465 102.534 36.596C102.381 36.6712 102.076 36.631 101.619 36.4751C101.239 36.2817 101.088 36.0707 101.166 35.8423L100.936 35.9552C100.477 36.181 100.34 36.5807 100.527 37.1545C100.602 37.3077 100.659 37.3271 100.698 37.2129C101.079 37.4064 101.325 37.618 101.438 37.8478C101.589 38.1541 101.567 38.5928 101.372 39.1639C101.37 39.3547 101.388 39.5838 101.424 39.8512C101.423 40.042 101.325 40.423 101.13 40.9941C100.547 42.5166 100.369 43.4122 100.596 43.6809C100.559 43.6043 100.463 43.6036 100.31 43.6789C100.004 43.8294 99.8297 44.1526 99.7881 44.6484C99.7465 45.1443 99.7056 45.5447 99.6653 45.8497L98.7303 48.591L98.7184 50.3082L97.7875 52.4771C97.7485 52.5913 97.7472 52.7821 97.7835 53.0495C97.8198 53.3169 97.8937 53.6609 98.0053 54.0814C97.3147 54.6109 97.0064 55.0477 97.0803 55.3916C96.6491 57.0297 96.3873 59.0123 96.2948 61.3396L95.9462 62.0814C95.7851 63.3015 95.5642 64.8837 95.2836 66.8281C95.0419 68.6583 94.7405 70.8506 94.3793 73.405C94.378 73.5958 94.3954 73.8249 94.4318 74.0923C94.4681 74.3597 94.3317 74.7594 94.0227 75.2916C93.9838 75.4058 94.0214 75.4824 94.1356 75.5213C93.9798 75.9782 93.8609 76.6071 93.7791 77.408L93.5116 82.9588C93.3947 83.3015 93.2966 83.6824 93.2174 84.1017C93.1005 84.4443 93.0206 84.959 92.9777 85.6456C92.8932 86.8281 92.7307 88.239 92.4904 89.8784C92.2124 91.4411 91.8948 93.2135 91.5376 95.1955L91.3464 97.9992C91.0777 98.2263 90.8459 98.6254 90.6511 99.1965C90.5706 99.8065 90.527 100.589 90.5204 101.543C90.5527 102.382 90.5454 103.432 90.4985 104.691C90.727 104.769 90.8412 104.808 90.8412 104.808C90.8412 104.808 90.8801 104.694 90.958 104.465L91.0729 104.409C91.0729 104.409 91.0346 104.427 90.958 104.465C91.0723 104.504 91.6453 104.413 92.6773 104.191L92.7942 103.848L93.1388 103.679C93.292 103.604 93.5023 103.548 93.7696 103.511C93.9994 103.399 94.2863 103.305 94.6303 103.231C95.1261 103.273 95.2591 103.35 95.0294 103.463C95.1825 103.388 95.2403 103.312 95.2027 103.235C95.1651 103.159 95.2228 103.083 95.376 103.007C95.4526 102.97 95.548 102.97 95.6622 103.009C95.853 103.011 96.025 102.974 96.1782 102.898L96.4079 102.786C96.4469 102.671 96.5047 102.595 96.5813 102.558C96.8876 102.407 97.2121 102.39 97.5548 102.507C97.9364 102.51 98.357 102.398 98.8165 102.173C98.8931 102.135 98.9891 102.04 99.1047 101.888C99.1826 101.66 99.2598 101.527 99.3364 101.489C99.413 101.452 99.5272 101.491 99.6791 101.606C99.8699 101.607 100.004 101.589 100.08 101.552C100.233 101.476 100.31 101.439 100.31 101.439C100.272 101.362 100.273 101.267 100.312 101.153C100.35 101.229 100.54 101.326 100.882 101.443C101.267 101.064 101.459 100.874 101.459 100.874C101.612 100.799 101.841 100.782 102.146 100.822C102.451 100.862 102.642 100.863 102.718 100.826C102.872 100.751 102.929 100.675 102.892 100.598L103.007 100.542C103.083 100.504 103.236 100.524 103.464 100.602C103.732 100.566 103.942 100.51 104.095 100.435C104.172 100.397 104.229 100.321 104.268 100.207C104.307 100.093 104.365 100.017 104.442 99.9791C104.442 99.9791 105.033 100.021 106.215 100.106L106.449 99.4206C106.41 99.5348 106.447 99.7068 106.56 99.9366L107.076 99.8257C107.153 99.788 107.172 99.7309 107.134 99.6543C107.097 99.5777 107.116 99.5206 107.193 99.483C107.269 99.4454 107.422 99.4655 107.65 99.5434C107.841 99.5448 108.013 99.5078 108.166 99.4325C108.243 99.3949 108.224 99.3566 108.11 99.3176C107.996 99.2787 108.015 99.2216 108.168 99.1463C108.245 99.1087 108.359 99.1476 108.511 99.2632C108.739 99.3411 108.93 99.3424 109.083 99.2671C109.237 99.1919 109.333 99.0971 109.372 98.9829C110.095 99.2932 110.494 99.4296 110.571 99.392C110.801 99.2791 111.012 99.1279 111.204 98.9384L111.893 98.5997L112.925 98.3779C113.078 98.3026 113.155 98.1696 113.157 97.9788C113.158 97.788 113.197 97.6738 113.274 97.6361C113.158 97.788 113.73 97.8874 114.989 97.9342C115.295 97.7837 115.791 97.8253 116.476 98.0591L116.769 97.2024L117.339 97.4926L117.512 97.2648C117.665 97.1896 118.009 97.211 118.542 97.3292C119.038 97.3708 119.324 97.3728 119.401 97.3352C119.477 97.2975 119.459 97.2593 119.344 97.2203C119.421 97.1827 119.766 97.0133 120.378 96.7123C120.455 96.6746 120.607 96.6948 120.836 96.7727C121.141 96.813 121.332 96.8143 121.408 96.7767C121.562 96.7014 121.697 96.4924 121.813 96.1498C122.269 96.4964 122.612 96.6133 122.841 96.5004C122.765 96.538 122.88 96.3862 123.188 96.0448C123.379 96.0462 123.646 96.0098 123.99 95.9359C124.334 95.862 124.697 95.8263 125.079 95.829C126.184 95.9511 126.814 95.9746 126.967 95.8993C127.12 95.8241 127.178 95.7481 127.14 95.6715C127.103 95.595 127.161 95.519 127.314 95.4438C127.39 95.4061 127.543 95.4263 127.771 95.5042C128 95.5821 128.152 95.6022 128.229 95.5646L128.459 95.4517C128.344 95.4128 128.364 95.3557 128.517 95.2804C129.13 94.9793 130.009 94.8328 131.153 94.8407C132.336 94.9253 132.889 94.9863 132.812 95.024C132.889 94.9863 132.986 94.7962 133.102 94.4535C133.217 94.4925 133.311 94.5886 133.387 94.7417C133.576 94.9339 133.747 94.9923 133.901 94.917L134.36 94.6912C134.666 94.5407 135.24 94.4493 136.079 94.4169L136.194 94.3605C136.157 94.2839 136.214 94.208 136.368 94.1327C136.444 94.0951 137.112 94.0997 138.371 94.1466C139.707 94.1559 140.661 94.0671 141.235 93.8803C141.235 93.8803 141.636 93.9212 142.436 94.0031C142.666 93.8902 142.953 93.7968 143.297 93.7228C143.755 93.6879 143.908 93.708 143.755 93.7833L144.099 93.6139C144.137 93.6905 144.136 93.7859 144.097 93.9001C144.821 94.0197 145.622 94.1015 146.5 94.1458L147.761 93.8111L150.108 93.9418C150.184 93.9042 150.203 93.9425 150.164 94.0567C150.125 94.1709 150.182 94.1904 150.335 94.1152C150.259 94.1528 150.317 94.0769 150.509 93.8874C150.659 94.1937 150.811 94.3093 150.964 94.234L152.113 93.6695C152.227 93.7085 152.247 93.6514 152.172 93.4982C151.983 93.1153 151.736 92.9991 151.43 93.1496C151.43 93.1496 151.391 93.1684 151.315 93.206C151.276 93.3203 151.218 93.3962 151.142 93.4338C151.143 93.243 151.106 93.071 151.031 92.9178C150.993 92.8413 150.974 92.803 150.974 92.803C150.062 92.3005 149.436 91.7046 149.098 91.0154C148.947 90.709 148.835 90.2884 148.763 89.7536L147.39 89.5724C147.277 89.3426 147.126 89.1317 146.937 88.9396L146.82 89.2822L146.594 88.8227C146.633 88.7085 146.596 88.5365 146.483 88.3067C146.295 87.9238 145.917 87.4441 145.348 86.8677C145.578 86.7548 145.732 86.5842 145.81 86.3557C145.201 86.0844 144.272 85.162 143.024 83.5886C142.951 83.0538 142.859 82.6716 142.746 82.4418C142.52 81.9823 142.179 81.5792 141.724 81.2326C141.764 80.9276 141.727 80.7556 141.613 80.7166L141.441 80.6582C141.636 80.0871 141.542 79.8956 141.159 80.0838C141.198 79.9696 141.105 79.6827 140.879 79.2232C140.955 79.1855 141.051 79.1862 141.165 79.2251L141.514 78.4834L144.066 81.9358C144.025 82.2408 144.176 82.5471 144.517 82.8548L148.432 87.9195C148.928 87.9611 149.289 88.1163 149.516 88.385C149.858 88.6927 150.332 89.0776 150.94 89.5398C151.429 90.5354 153.422 91.9804 156.92 93.8746L158.982 93.7172C159.364 93.7199 159.917 93.7809 160.641 93.9005C161.365 94.02 162.299 94.1791 163.443 94.3779C163.632 94.57 163.726 94.8569 163.723 95.2385C164.025 95.6604 164.746 96.2569 165.886 97.0281C165.847 97.1423 165.808 97.2565 165.769 97.3707C165.768 97.5615 165.991 98.4027 166.438 99.8941C166.399 100.008 166.399 100.104 166.436 100.18C166.7 100.716 167.079 101.101 167.573 101.333C168.182 101.604 169.135 101.802 170.431 101.925L170.714 102.5L169.909 102.895ZM132.271 24.552C132.271 24.552 132.252 24.5137 132.214 24.4371L132.271 24.552ZM108.949 102.186C108.949 102.186 108.91 102.205 108.834 102.242L108.949 102.186Z" fill="black"/>
</svg>