<svg width="362" height="120" viewBox="0 0 362 120" fill="none" xmlns="http://www.w3.org/2000/svg">
<path d="M1.2375 95.4C1.06683 95.5707 0.896167 95.4853 0.7255 95.144C0.7255 94.888 0.768167 94.504 0.8535 93.992C0.938833 93.48 1.02417 93.096 1.1095 92.84L2.7735 86.568C2.7735 86.2267 2.7735 85.8427 2.7735 85.416C2.7735 84.9893 2.81617 84.5627 2.9015 84.136C3.07217 83.9653 3.24283 83.752 3.4135 83.496C3.58417 83.3253 3.75483 83.0693 3.9255 82.728L3.5415 81.576C3.5415 81.4053 3.75483 81.192 4.1815 80.936C3.84017 80.5947 3.75483 80.168 3.9255 79.656L4.9495 76.84C4.6935 77.0107 4.35217 77.352 3.9255 77.864C3.75483 77.6933 3.5415 77.5653 3.2855 77.48C3.37083 77.3093 3.2855 77.0107 3.0295 76.584L3.4135 74.92C4.01083 74.5787 4.3095 74.152 4.3095 73.64L4.1815 72.488C4.52283 72.1467 4.86417 71.6773 5.2055 71.08C5.12017 70.9947 5.0775 70.7813 5.0775 70.44C5.16283 69.672 5.29083 68.9893 5.4615 68.392C5.7175 67.7093 5.80283 67.3253 5.7175 67.24V66.344L6.4855 64.04C6.31483 63.8693 6.2295 63.7413 6.2295 63.656C6.40017 63.2293 6.69883 62.8027 7.1255 62.376V61.608L7.8935 61.096V59.816C8.1495 59.816 8.32017 59.7733 8.4055 59.688C8.1495 59.432 7.97883 59.176 7.8935 58.92C8.83217 58.4933 9.0455 57.9387 8.5335 57.256L8.9175 55.592C8.9175 55.592 9.1735 55.5067 9.6855 55.336C9.60017 54.9947 9.51483 54.824 9.4295 54.824L10.0695 54.184C9.98417 54.0133 9.9415 53.7147 9.9415 53.288L10.7095 50.6L10.3255 50.216C10.4962 49.7893 10.6668 49.2773 10.8375 48.68C11.0082 47.9973 11.2642 47.2293 11.6055 46.376H10.7095C10.6242 46.376 10.5388 46.4613 10.4535 46.632C10.3682 46.7173 10.2828 46.76 10.1975 46.76C10.0268 46.76 9.98417 46.7173 10.0695 46.632H9.9415C9.6855 46.632 9.51483 46.8027 9.4295 47.144C9.4295 46.9733 9.38683 46.888 9.3015 46.888C9.13083 46.9733 8.6615 47.2293 7.8935 47.656C7.80817 47.656 7.6375 47.6987 7.3815 47.784C7.21083 47.784 6.9975 47.8267 6.7415 47.912C5.2055 48.5093 4.48017 48.808 4.5655 48.808C4.48017 48.808 4.35217 48.68 4.1815 48.424C4.01083 47.9973 4.01083 47.6987 4.1815 47.528C4.09617 47.3573 4.0535 47.016 4.0535 46.504C4.39483 46.1627 4.86417 45.4373 5.4615 44.328C5.88817 44.328 6.40017 44.0293 6.9975 43.432C6.9975 43.6027 7.08283 43.7733 7.2535 43.944C7.2535 43.8587 7.29617 43.7733 7.3815 43.688C7.8935 43.688 8.19217 43.7307 8.2775 43.816L10.4535 42.792C10.4535 42.8773 10.5388 43.0053 10.7095 43.176L11.0935 42.92C11.0082 43.176 11.0082 43.304 11.0935 43.304C11.2642 43.304 11.7762 42.92 12.6295 42.152L13.5255 41.384C13.5255 41.2987 13.4828 41.256 13.3975 41.256L14.8055 37.672C14.7202 37.672 14.5922 37.5867 14.4215 37.416L14.9335 37.032C15.1042 36.776 15.2748 36.4773 15.4455 36.136C15.6162 35.7947 15.7868 35.4533 15.9575 35.112C15.9575 34.7707 15.9575 34.3867 15.9575 33.96C15.9575 33.5333 16.0002 33.1067 16.0855 32.68C16.1708 32.5947 16.3842 32.2107 16.7255 31.528C17.1522 30.8453 17.4082 30.3333 17.4935 29.992C17.6642 29.6507 17.8775 29.1813 18.1335 28.584C18.3895 27.9013 18.6455 26.92 18.9015 25.64C19.2428 25.2987 19.6695 24.4453 20.1815 23.08C20.1815 23.2507 20.2242 23.336 20.3095 23.336C20.4802 23.1653 20.6508 22.9093 20.8215 22.568C20.9068 22.312 20.8215 21.928 20.5655 21.416L20.8215 21.288C20.8215 21.288 20.9068 21.032 21.0775 20.52C21.1628 20.4347 21.2482 20.3493 21.3335 20.264C21.5042 20.1787 21.6322 20.0507 21.7175 19.88L22.8695 16.552L22.9975 16.68H23.2535C23.3388 16.5947 23.2962 16.5093 23.1255 16.424L23.6375 15.912C23.6375 15.7413 23.6375 15.5707 23.6375 15.4C23.6375 15.2293 23.6802 15.016 23.7655 14.76C23.9362 14.5893 24.1068 14.4187 24.2775 14.248C24.5335 13.992 24.8322 13.6933 25.1735 13.352H25.5575C25.5575 13.352 25.5575 13.3947 25.5575 13.48C25.5575 13.48 25.6002 13.5227 25.6855 13.608C26.0268 13.5227 26.3682 13.224 26.7095 12.712C26.7948 12.712 26.8802 12.7547 26.9655 12.84C27.6482 12.9253 27.9895 12.968 27.9895 12.968C27.9895 12.968 28.1175 12.968 28.3735 12.968H29.0135C29.6962 12.968 30.1655 13.096 30.4215 13.352H31.0615C31.2322 13.5227 31.3175 13.736 31.3175 13.992L31.0615 14.888C30.8055 15.8267 30.5495 16.552 30.2935 17.064C30.0375 17.576 29.6535 18.216 29.1415 18.984L28.5015 19.88C28.3308 20.3067 28.0748 20.8613 27.7335 21.544C27.4775 22.2267 27.1788 23.0373 26.8375 23.976C26.7522 23.976 26.6668 23.976 26.5815 23.976C26.5815 23.976 26.5388 24.1467 26.4535 24.488L26.0695 25.384C26.0695 25.5547 25.7708 26.0667 25.1735 26.92C25.0028 27.0907 24.8748 27.6453 24.7895 28.584L23.7655 31.016C23.8508 31.1013 23.8935 31.1867 23.8935 31.272C23.2962 31.6987 22.9122 31.912 22.7415 31.912C22.5708 31.912 22.4002 31.8267 22.2295 31.656L22.7415 30.376L22.6135 30.248C22.4428 30.4187 22.3575 30.5467 22.3575 30.632C22.0162 30.8027 21.8028 31.016 21.7175 31.272L20.5655 34.344L19.6695 36.008L18.0055 40.744C17.8348 41.256 17.8348 41.5973 18.0055 41.768C18.0055 41.768 18.1762 41.6827 18.5175 41.512C18.9442 42.1947 18.9868 42.536 18.6455 42.536C19.0722 42.536 19.3282 42.536 19.4135 42.536C19.4988 42.536 19.4562 42.4933 19.2855 42.408C19.3708 42.3227 19.5415 42.1947 19.7975 42.024C20.1388 41.8533 20.7788 41.64 21.7175 41.384C21.8028 41.7253 21.9308 41.896 22.1015 41.896C22.2722 41.896 22.6135 41.768 23.1255 41.512C23.6375 41.1707 23.9362 41 24.0215 41C24.0215 41 24.0642 41.0427 24.1495 41.128C24.3202 41.2133 24.4908 41.3413 24.6615 41.512L25.0455 41.256L27.9895 40.36C27.9895 40.36 28.0322 40.488 28.1175 40.744C28.2882 40.6587 28.4162 40.616 28.5015 40.616C28.5868 40.5307 28.6295 40.488 28.6295 40.488C28.7148 40.488 28.8428 40.5733 29.0135 40.744C30.0375 40.0613 31.0615 39.5493 32.0855 39.208C32.1708 39.208 32.2135 39.2507 32.2135 39.336H32.3415C32.4268 39.336 32.6828 39.2507 33.1095 39.08C33.6215 38.9093 33.9628 38.824 34.1335 38.824C34.1335 38.9947 34.0055 39.208 33.7495 39.464C33.2375 39.5493 32.7255 39.848 32.2135 40.36C31.7868 40.7867 31.5308 41 31.4455 41H31.3175C31.4028 40.9147 31.4028 40.872 31.3175 40.872C31.5735 40.872 30.3362 41.256 27.6055 42.024C27.3495 42.1093 26.8375 42.3653 26.0695 42.792C25.3015 43.1333 24.8748 43.304 24.7895 43.304L22.7415 43.944C22.6562 43.944 22.6562 43.9013 22.7415 43.816C22.7415 43.7307 22.6988 43.688 22.6135 43.688C22.5282 43.688 22.4428 43.7733 22.3575 43.944C22.3575 44.0293 22.3148 44.072 22.2295 44.072C20.2668 44.072 19.0722 44.4133 18.6455 45.096H18.2615C18.1762 45.096 18.0482 45.0533 17.8775 44.968C17.7922 44.8827 17.6642 44.84 17.4935 44.84C17.2375 44.84 16.8962 45.0533 16.4695 45.48C16.3842 45.8213 16.2562 46.2053 16.0855 46.632C15.9148 47.0587 15.7442 47.5707 15.5735 48.168C15.5735 48.168 15.2748 49.0213 14.6775 50.728C14.3362 51.6667 13.9948 52.648 13.6535 53.672C13.3122 54.6107 12.9282 55.5493 12.5015 56.488C12.4162 56.8293 12.2882 57.2987 12.1175 57.896C11.9468 58.4933 11.7762 59.176 11.6055 59.944C10.9228 62.6747 9.77083 66.472 8.1495 71.336C7.8935 72.0187 7.6375 72.5733 7.3815 73C7.46683 73.0853 7.5095 73.384 7.5095 73.896C7.42417 74.0667 7.33883 74.28 7.2535 74.536C7.16817 74.792 7.04017 75.0053 6.8695 75.176V75.688C6.8695 75.944 6.6135 76.5413 6.1015 77.48C6.27217 78.0773 6.27217 78.4613 6.1015 78.632C5.50417 81.0213 4.9495 82.5147 4.4375 83.112V83.496C4.4375 83.752 4.39483 84.0507 4.3095 84.392C4.22417 84.8187 4.09617 85.2453 3.9255 85.672C3.58417 87.0373 3.20017 88.488 2.7735 90.024C2.34683 91.6453 1.8775 93.3947 1.3655 95.272L1.2375 95.4ZM9.4295 54.824C9.4295 54.7387 9.4295 54.7387 9.4295 54.824V54.824ZM29.3495 73.512C29.0935 73.512 28.8802 73.2987 28.7095 72.872C28.6242 72.9573 28.5815 73.0427 28.5815 73.128H27.8135L27.4295 72.36C27.3442 72.4453 27.3015 72.5307 27.3015 72.616C27.2162 72.616 27.0882 72.5307 26.9175 72.36L26.5335 72.616C26.1068 72.1893 25.6375 71.6347 25.1255 70.952C24.6988 70.184 24.4428 69.416 24.3575 68.648C24.2722 68.5627 24.1015 68.52 23.8455 68.52V67.496C24.1868 67.4107 24.4002 66.728 24.4855 65.448L24.8695 64.936V64.296L24.6135 64.04L25.1255 63.656L26.5335 59.688L27.8135 58.28V57.896C28.8375 57.2133 29.4775 56.488 29.7335 55.72C30.0748 55.72 30.2455 55.5493 30.2455 55.208C31.3548 54.8667 31.7815 54.312 31.5255 53.544C31.6962 53.4587 31.7815 53.416 31.7815 53.416C31.8668 53.416 31.9095 53.416 31.9095 53.416C31.9948 53.416 32.1655 53.5013 32.4215 53.672C32.6775 53.7573 32.8482 53.8 32.9335 53.8C33.1042 53.8 33.2322 53.7573 33.3175 53.672C33.4882 53.5867 33.6162 53.544 33.7015 53.544C34.0428 53.8853 34.2562 54.056 34.3415 54.056C34.7682 54.056 35.1948 53.8853 35.6215 53.544C35.6215 53.6293 35.6642 53.7573 35.7495 53.928C35.8348 54.0987 35.8775 54.2267 35.8775 54.312C35.8775 54.7387 35.7068 55.1227 35.3655 55.464L35.7495 55.976C35.7495 56.5733 35.2375 57.512 34.2135 58.792C33.1895 59.9013 32.4642 60.5413 32.0375 60.712C31.9522 60.7973 31.8668 60.968 31.7815 61.224C31.6962 61.3947 31.5682 61.5653 31.3975 61.736H31.1415L30.8855 61.48L29.6055 63.144C29.6055 63.4853 29.2642 64.1253 28.5815 65.064C28.3255 65.1493 28.1122 65.192 27.9415 65.192C27.8562 65.1067 27.8135 65.1067 27.8135 65.192V66.088C28.2402 66.856 28.4108 67.368 28.3255 67.624C28.0695 68.136 27.9415 68.4347 27.9415 68.52C27.9415 68.4347 28.1975 68.776 28.7095 69.544C28.6242 69.6293 28.5815 69.928 28.5815 70.44C29.2642 70.5253 30.1602 70.9093 31.2695 71.592H31.7815C32.1228 71.592 32.3362 71.5493 32.4215 71.464C32.5922 71.2933 32.6775 71.208 32.6775 71.208C32.7628 71.208 32.8055 71.2507 32.8055 71.336H32.9335C33.0188 71.336 33.2322 71.1653 33.5735 70.824C33.9148 70.4827 34.1282 70.312 34.2135 70.312C34.2988 70.312 34.3415 70.3547 34.3415 70.44C34.3415 70.5253 34.3842 70.568 34.4695 70.568C34.5548 70.568 34.7255 70.5253 34.9815 70.44C35.2375 70.3547 35.4508 70.312 35.6215 70.312V69.928C35.5362 69.8427 35.5362 69.8 35.6215 69.8V69.928C35.7068 70.0133 36.0055 70.1413 36.5175 70.312L36.3895 69.8C36.6455 69.7147 36.8588 69.4587 37.0295 69.032C37.4562 69.032 37.8402 68.9893 38.1815 68.904C38.6082 68.7333 38.8215 68.52 38.8215 68.264H39.8455C39.8455 68.4347 39.9308 68.52 40.1015 68.52C40.9548 68.52 41.4242 67.9653 41.5095 66.856L42.2775 66.088C42.2775 66.088 42.3628 66.1733 42.5335 66.344C42.8748 66.0027 43.1735 65.832 43.4295 65.832C43.5148 65.832 43.5575 65.8747 43.5575 65.96C43.6428 66.0453 43.7708 66.088 43.9415 66.088C44.1975 66.088 44.4535 65.96 44.7095 65.704C44.9655 65.448 45.0935 65.2773 45.0935 65.192C45.2642 65.0213 45.4775 64.8507 45.7335 64.68C45.9895 64.5093 46.2028 64.2533 46.3735 63.912L47.1415 64.296C47.0562 64.2107 47.9522 63.4427 49.8295 61.992C50.6828 61.6507 51.1095 61.3947 51.1095 61.224C51.4508 61.224 51.7922 61.096 52.1335 60.84V60.456L53.9255 59.56V60.328H53.2855C53.2002 60.4133 53.1575 60.6693 53.1575 61.096L50.2135 63.4C50.0428 63.4 50.0002 63.3573 50.0855 63.272H49.9575C50.0428 63.272 49.6588 63.6987 48.8055 64.552C48.6348 64.7227 48.2935 64.808 47.7815 64.808C46.6722 65.832 46.2455 66.3013 46.5015 66.216C46.4162 66.1307 46.3308 66.088 46.2455 66.088C46.1602 66.1733 46.1175 66.344 46.1175 66.6H45.9895C45.6482 66.6 45.1362 66.9413 44.4535 67.624C44.3682 67.624 44.2402 67.624 44.0695 67.624C43.8988 67.624 43.7282 67.6667 43.5575 67.752C43.2162 68.008 42.7895 68.3493 42.2775 68.776C41.8508 69.1173 41.3388 69.544 40.7415 70.056H39.9735C39.3762 70.568 38.9495 70.824 38.6935 70.824H38.3095C38.2242 70.7387 38.1388 70.696 38.0535 70.696C37.9682 70.696 37.6268 70.8667 37.0295 71.208C36.5175 71.5493 36.1762 71.72 36.0055 71.72H35.8775C35.8775 71.6347 35.8348 71.592 35.7495 71.592C35.6642 71.592 35.3228 71.7627 34.7255 72.104C34.2135 72.36 33.9148 72.488 33.8295 72.488H33.7015C33.7015 72.4027 33.6162 72.36 33.4455 72.36C33.3602 72.36 33.2322 72.4027 33.0615 72.488C32.9762 72.5733 32.7628 72.6587 32.4215 72.744C31.5682 73.1707 31.3122 73.384 31.6535 73.384C31.5682 73.384 31.3122 73.3413 30.8855 73.256C30.4588 73.1707 30.1602 73.128 29.9895 73.128L29.3495 73.512ZM54.9495 59.304C54.8642 59.304 54.7788 59.2613 54.6935 59.176C54.6935 59.0053 54.6508 58.92 54.5655 58.92L56.3575 57C56.6988 57 56.8695 57.0853 56.8695 57.256C56.8695 57.5973 56.5708 58.024 55.9735 58.536C55.4615 58.9627 55.1202 59.2187 54.9495 59.304ZM38.1815 49.064C37.4988 49.064 36.5602 48.5947 35.3655 47.656C34.3415 46.632 33.8295 45.8213 33.8295 45.224C34.8535 44.7973 35.9628 44.328 37.1575 43.816C38.4375 43.2187 39.7602 42.5787 41.1255 41.896H41.2535C40.9122 42.8347 40.4428 43.6027 39.8455 44.2L40.1015 45.096V45.864L39.4615 46.632C39.4615 48.2533 39.0348 49.064 38.1815 49.064ZM53.5245 76.2C53.4392 76.2 53.2685 76.1147 53.0125 75.944C52.7565 75.8587 52.3298 75.4747 51.7325 74.792V74.408C51.5618 74.152 51.4338 73.896 51.3485 73.64C51.2632 73.4693 51.2205 73.384 51.2205 73.384C51.3058 73.2133 51.3912 72.8293 51.4765 72.232C51.7325 71.976 51.9032 71.336 51.9885 70.312L52.6285 69.672L53.2685 66.984C53.5245 66.728 53.6952 66.344 53.7805 65.832V65.192C54.5485 63.4 54.8898 61.8213 54.8045 60.456C55.1458 60.1147 55.3165 59.6453 55.3165 59.048C55.3165 58.6213 55.2312 58.3227 55.0605 58.152C54.9752 57.9813 54.8898 57.8107 54.8045 57.64C54.7192 57.2133 54.7192 56.8293 54.8045 56.488C54.8045 56.4027 54.8472 56.3173 54.9325 56.232C54.9325 56.232 54.8898 56.0613 54.8045 55.72C54.8045 55.3787 54.7618 54.8667 54.6765 54.184C54.5912 54.0133 54.5058 53.8 54.4205 53.544C54.3352 53.288 54.2498 52.904 54.1645 52.392C54.0792 52.2213 53.9938 52.0507 53.9085 51.88C53.8232 51.7093 53.7378 51.496 53.6525 51.24C53.0552 51.1547 52.7565 51.0693 52.7565 50.984L52.3725 51.112C52.2872 50.856 52.2018 50.6427 52.1165 50.472C52.1165 50.216 52.1165 50.0027 52.1165 49.832C52.1165 49.832 52.3725 49.7467 52.8845 49.576C53.3965 49.32 53.7805 49.192 54.0365 49.192C54.1218 49.192 54.2498 49.2773 54.4205 49.448C54.6765 49.5333 54.8472 49.576 54.9325 49.576H55.1885C55.1885 49.4907 55.2738 49.448 55.4445 49.448C55.1885 49.448 55.6152 49.832 56.7245 50.6C56.8952 51.112 57.1512 51.4107 57.4925 51.496C57.4925 51.5813 57.4072 51.7093 57.2365 51.88C57.2365 51.88 57.5778 52.8187 58.2605 54.696C58.3458 55.0373 58.3885 55.5067 58.3885 56.104C58.4738 56.616 58.5165 57.3413 58.5165 58.28V61.736C58.9432 62.1627 59.1992 62.376 59.2845 62.376C59.6258 62.376 59.8392 62.0773 59.9245 61.48C60.0952 61.3947 60.3085 61.2667 60.5645 61.096C60.9058 60.9253 61.2472 60.7547 61.5885 60.584C61.6738 60.328 62.0152 59.9013 62.6125 59.304C62.6978 59.048 62.6552 58.8347 62.4845 58.664L63.3805 57.768C63.3805 57.3413 63.5085 56.9573 63.7645 56.616C64.0205 56.4453 64.3618 56.104 64.7885 55.592C65.2152 55.08 65.4712 54.824 65.5565 54.824C65.6418 54.9093 65.7272 54.952 65.8125 54.952C65.8978 54.8667 65.9405 54.6533 65.9405 54.312C66.1112 54.312 66.2392 54.3547 66.3245 54.44L66.9645 53.672V52.904C67.8178 52.3067 68.2445 51.88 68.2445 51.624L69.7805 50.856C69.8658 50.7707 70.1218 50.5147 70.5485 50.088C71.0605 49.6613 71.7432 48.9787 72.5965 48.04L73.3645 47.656L76.9485 44.968C77.3752 44.968 77.7592 44.7973 78.1005 44.456C78.5272 44.1147 78.8258 43.944 78.9965 43.944L79.5085 44.2V43.944H80.0205C79.9352 44.2 80.1058 44.4987 80.5325 44.84C80.9592 45.1813 81.4285 45.864 81.9405 46.888C82.1965 47.3147 82.1538 47.6987 81.8125 48.04C81.7272 48.1253 81.7272 48.424 81.8125 48.936C82.0685 49.5333 82.1965 49.9173 82.1965 50.088L81.8125 51.496L81.9405 52.136C81.9405 52.136 81.8552 52.3493 81.6845 52.776C81.5138 53.2027 81.2578 53.8853 80.9165 54.824L80.2765 56.104V56.616L80.5325 56.872L82.5805 54.824C82.9218 54.824 83.3912 54.6533 83.9885 54.312C84.0738 54.1413 84.1592 53.9707 84.2445 53.8C84.3298 53.544 84.3725 53.3733 84.3725 53.288C85.0552 53.6293 85.5245 53.8 85.7805 53.8H86.1645C86.2498 53.7147 86.3778 53.672 86.5485 53.672C87.0605 53.672 87.5725 54.0987 88.0845 54.952C88.2552 55.2933 88.6392 55.8053 89.2365 56.488L88.8525 57.256C88.8525 57.5973 89.1085 57.896 89.6205 58.152V58.92C89.6205 59.176 89.6205 59.432 89.6205 59.688C89.6205 59.944 89.5778 60.2 89.4925 60.456L90.3885 61.992C90.3885 62.1627 90.3458 62.3333 90.2605 62.504C90.2605 63.1013 90.6445 63.9973 91.4125 65.192V65.448C91.4125 66.3013 92.0098 66.984 93.2045 67.496L94.1005 68.648C94.1858 68.648 94.5272 68.4773 95.1245 68.136C95.7218 67.7093 96.0632 67.496 96.1485 67.496C96.1485 67.496 96.2765 67.5813 96.5325 67.752C96.6178 67.5813 97.3432 67.0693 98.7085 66.216C98.7938 66.1307 98.9218 66.088 99.0925 66.088C99.2632 66.088 99.4338 66.0453 99.6045 65.96C99.5192 66.0453 99.4338 66.1733 99.3485 66.344C99.3485 66.4293 99.2632 66.6 99.0925 66.856C98.7512 67.0267 98.2818 67.2827 97.6845 67.624C97.1725 67.88 96.5752 68.1787 95.8925 68.52C95.3805 69.032 94.6125 69.7147 93.5885 70.568C92.5645 71.4213 91.4125 71.7627 90.1325 71.592C89.9618 71.4213 89.7485 71.2933 89.4925 71.208C89.3218 71.0373 89.0658 70.9093 88.7245 70.824L88.3405 70.312C87.6578 70.056 87.0605 69.4587 86.5485 68.52C86.1218 67.496 85.6952 66.5147 85.2685 65.576L84.6285 62.888V62.248C84.6285 62.1627 84.5432 61.992 84.3725 61.736C84.2872 61.48 84.1165 60.6267 83.8605 59.176C83.5192 58.3227 83.1352 57.896 82.7085 57.896C82.6232 57.8107 82.4952 57.8533 82.3245 58.024C82.1538 58.1947 82.0258 58.28 81.9405 58.28C81.7698 58.1093 81.6845 58.024 81.6845 58.024C81.6845 57.256 80.2338 58.536 77.3325 61.864C77.1618 62.0347 76.8632 62.248 76.4365 62.504C76.0098 62.76 75.4978 63.1013 74.9005 63.528V63.912C74.9005 64.8507 74.3458 65.6187 73.2365 66.216L72.5965 65.704C72.5965 65.448 72.6392 65.064 72.7245 64.552C72.8098 63.9547 72.8525 63.528 72.8525 63.272H73.1085C73.1085 63.3573 73.1512 63.4 73.2365 63.4L73.6205 61.224C74.3032 60.7973 74.5592 60.1147 74.3885 59.176C74.7298 58.8347 74.9432 58.4933 75.0285 58.152C75.1992 57.7253 75.4125 57.128 75.6685 56.36C75.6685 56.2747 75.6258 56.1893 75.5405 56.104C75.5405 56.0187 75.5405 55.9333 75.5405 55.848C75.5405 55.336 75.6258 54.7813 75.7965 54.184C75.9672 53.5013 76.1805 52.8187 76.4365 52.136V50.344L75.9245 49.96V49.064L75.5405 48.808C75.1992 49.064 74.7725 49.3627 74.2605 49.704C73.7485 49.96 73.1085 50.2587 72.3405 50.6C71.9992 50.856 71.8712 50.984 71.9565 50.984H71.8285C71.8285 50.8987 71.7858 50.856 71.7005 50.856C71.5298 50.856 70.9752 51.496 70.0365 52.776C69.6952 53.1173 69.2258 53.5867 68.6285 54.184C68.1165 54.696 67.5192 55.3787 66.8365 56.232L66.1965 56.616L62.8685 60.456C62.6978 60.7973 62.6125 61.0533 62.6125 61.224C62.3565 61.48 62.1432 61.608 61.9725 61.608L61.0765 63.016C60.9058 63.1867 60.7778 63.3147 60.6925 63.4C60.6072 63.4853 60.5645 63.7413 60.5645 64.168C59.8818 64.5947 59.2418 65.4053 58.6445 66.6C58.6445 67.112 58.6018 67.5387 58.5165 67.88C58.1752 68.4773 57.9192 69.2027 57.7485 70.056C57.5778 70.9093 57.4072 71.8907 57.2365 73C56.7245 73.4267 56.1272 74.1093 55.4445 75.048C55.0178 75.2187 54.5912 75.56 54.1645 76.072C53.9938 76.1573 53.8232 76.2 53.6525 76.2C53.5672 76.2 53.5245 76.2 53.5245 76.2ZM112.33 74.024C112.415 74.024 112.33 73.896 112.074 73.64C111.903 73.8107 111.519 73.896 110.922 73.896C110.751 73.896 110.495 73.8107 110.154 73.64C109.898 73.5547 109.727 73.512 109.642 73.512C109.556 73.512 109.343 73.5547 109.002 73.64C108.746 73.7253 108.532 73.768 108.362 73.768C108.276 73.768 108.02 73.6827 107.594 73.512C107.167 73.4267 106.868 73.384 106.698 73.384C106.612 72.2747 105.631 71.848 103.754 72.104V71.848C103.754 71.2507 103.626 70.7813 103.37 70.44C103.114 70.0987 102.9 69.544 102.73 68.776C102.644 68.6907 102.474 68.52 102.218 68.264C102.047 67.9227 101.962 67.2827 101.962 66.344C101.962 66.344 102.047 66.1733 102.218 65.832C102.303 65.7467 102.218 65.5333 101.962 65.192C102.047 65.1067 102.218 64.424 102.474 63.144C102.559 62.7173 102.602 62.376 102.602 62.12C102.687 61.864 102.73 61.6507 102.73 61.48C102.218 61.0533 101.962 60.6693 101.962 60.328L102.346 59.432C102.431 59.5173 102.73 59.56 103.242 59.56H103.754C103.924 59.304 104.095 59.048 104.266 58.792C104.522 58.4507 104.82 58.1093 105.161 57.768C105.674 57.768 106.143 57.2987 106.57 56.36L106.442 55.848C106.527 55.6773 106.612 55.5493 106.698 55.464C106.698 55.464 106.74 55.464 106.826 55.464C106.826 55.464 106.783 55.464 106.698 55.464C106.783 55.464 106.911 55.5067 107.082 55.592C107.167 55.5067 107.338 55.336 107.594 55.08C107.85 54.824 108.276 54.4827 108.874 54.056C109.13 53.7147 109.556 53.288 110.154 52.776C111.178 52.0933 111.732 51.752 111.818 51.752C111.988 51.752 112.372 51.496 112.97 50.984C113.14 51.0693 113.268 51.1547 113.354 51.24C113.439 51.24 113.482 51.24 113.482 51.24C113.652 51.24 114.335 50.9413 115.53 50.344C115.444 50.6853 115.53 50.856 115.786 50.856H116.682C117.108 50.6 117.322 50.472 117.322 50.472C118.175 50.472 119.199 50.9413 120.394 51.88C120.479 51.9653 120.607 52.008 120.778 52.008V54.056C120.607 54.056 120.436 53.9707 120.266 53.8L119.753 54.952C120.095 55.464 120.266 55.72 120.266 55.72C120.095 55.8053 119.668 56.5307 118.986 57.896V58.92C118.644 58.92 118.346 58.9627 118.09 59.048C116.724 59.9867 115.956 60.456 115.786 60.456H115.53C115.444 60.3707 115.359 60.328 115.274 60.328C114.932 60.328 114.463 60.4987 113.866 60.84C113.78 60.9253 113.652 61.096 113.482 61.352C113.311 61.5227 113.098 61.608 112.842 61.608H112.714C112.714 61.5227 112.671 61.48 112.586 61.48C112.415 61.48 111.946 61.6507 111.178 61.992C110.495 62.248 110.111 62.376 110.026 62.376H109.77C109.684 62.2907 109.599 62.248 109.514 62.248L109.13 62.632H108.362C108.02 62.632 107.764 62.5467 107.594 62.376H105.93C105.93 62.7173 105.802 63.2293 105.546 63.912C105.375 64.5947 105.29 64.9787 105.29 65.064C105.29 65.32 105.588 65.9173 106.186 66.856C106.271 66.9413 106.442 67.1547 106.698 67.496C106.954 67.752 107.338 68.0933 107.85 68.52C108.02 68.8613 108.276 69.2027 108.618 69.544C108.788 69.6293 108.959 69.672 109.13 69.672C109.3 69.672 109.514 69.7147 109.77 69.8L110.154 70.312C110.41 70.1413 110.794 70.1413 111.306 70.312L111.946 70.696C112.372 70.696 112.586 70.696 112.586 70.696C112.586 70.6107 112.586 70.568 112.586 70.568C112.671 70.6533 112.671 70.696 112.586 70.696C112.671 70.7813 112.756 70.824 112.842 70.824C112.927 70.824 113.012 70.7813 113.098 70.696C113.268 70.5253 113.396 70.44 113.482 70.44H113.738C113.738 70.5253 113.78 70.568 113.866 70.568C114.122 70.568 114.42 70.3973 114.762 70.056C115.018 70.1413 115.274 70.1413 115.53 70.056L115.658 70.184V70.568C115.487 70.6533 115.274 70.7813 115.018 70.952C114.762 71.1227 114.42 71.2933 113.994 71.464V71.976C113.994 72.0613 114.164 72.104 114.506 72.104C115.956 72.104 117.108 71.6773 117.962 70.824C118.132 70.9093 118.26 70.9947 118.346 71.08C118.431 71.08 118.474 71.08 118.474 71.08C118.644 71.08 118.73 70.9947 118.73 70.824H119.37C119.54 70.7387 119.796 70.5253 120.138 70.184C120.479 69.7573 120.82 69.544 121.162 69.544L121.674 69.672L122.058 68.648L122.442 68.904C122.612 68.7333 122.996 68.648 123.594 68.648C123.594 68.648 123.594 68.6053 123.594 68.52C123.594 68.4347 123.636 68.3493 123.722 68.264C124.575 68.0933 125.642 67.368 126.922 66.088H127.434L129.354 64.552C129.354 64.3813 129.482 64.1253 129.738 63.784C129.823 63.784 129.951 63.8693 130.122 64.04L131.274 62.504C131.53 62.504 131.828 62.376 132.17 62.12L132.554 62.504L131.658 63.656C131.146 63.9973 130.506 64.5093 129.738 65.192C128.97 65.8747 128.116 66.6853 127.178 67.624C126.58 67.624 126.239 67.7947 126.154 68.136C125.386 68.4773 124.874 68.8613 124.618 69.288L124.234 68.904C124.148 68.9893 123.892 69.2027 123.466 69.544C123.124 69.8 122.527 70.1413 121.674 70.568C121.503 70.7387 121.247 70.9947 120.906 71.336C120.564 71.592 120.223 71.72 119.882 71.72C119.711 71.72 119.668 71.6773 119.753 71.592H119.626C119.284 71.592 118.943 71.72 118.602 71.976C118.26 72.232 118.09 72.4453 118.09 72.616C118.004 72.616 117.876 72.5307 117.706 72.36C116.596 72.9573 115.956 73.256 115.786 73.256H115.53L115.402 73.128L113.482 73.64C113.482 73.64 113.482 73.5973 113.482 73.512C113.482 73.4267 113.439 73.3413 113.354 73.256L112.97 73.768C112.884 73.768 112.756 73.8107 112.586 73.896C112.5 73.9813 112.415 74.024 112.33 74.024ZM109.258 61.096C109.172 60.84 109.258 60.712 109.514 60.712C109.599 60.712 109.642 60.7547 109.642 60.84H109.898C109.983 60.84 110.154 60.712 110.41 60.456C110.751 60.2 110.964 60.072 111.05 60.072C111.135 60.072 111.263 60.1147 111.434 60.2C111.604 60.2853 111.732 60.328 111.818 60.328C111.647 60.328 111.86 60.0293 112.458 59.432L112.842 59.688C114.804 58.408 115.786 57.2987 115.786 56.36C115.786 55.2507 115.231 54.568 114.122 54.312C113.098 54.056 112.116 53.8 111.178 53.544C111.007 53.7147 110.836 53.8 110.666 53.8C110.239 54.4827 109.77 54.9947 109.258 55.336C109.087 55.336 108.575 55.7627 107.722 56.616C107.722 56.7013 107.466 57.0853 106.954 57.768C106.783 58.3653 106.612 58.8347 106.442 59.176C106.356 59.5173 106.314 59.7733 106.314 59.944C106.655 60.5413 106.996 60.84 107.338 60.84H107.466C107.551 60.7547 107.636 60.712 107.722 60.712C108.148 60.712 108.66 60.84 109.258 61.096ZM133.066 61.864V61.608C133.066 61.096 133.322 60.7973 133.833 60.712C133.748 61.0533 133.492 61.4373 133.066 61.864ZM176.807 74.28C176.38 73.8533 175.953 73.64 175.527 73.64L174.503 73.896C174.417 73.896 174.247 73.8107 173.991 73.64C173.735 73.4693 173.564 73.384 173.479 73.384C173.223 73.384 173.095 73.4693 173.095 73.64C172.583 73.128 172.156 72.872 171.815 72.872H171.687C171.687 72.9573 171.601 73 171.431 73C171.175 73 170.919 72.7867 170.663 72.36L170.151 71.72C170.065 71.72 169.809 71.464 169.383 70.952C168.956 70.44 168.828 69.6293 168.999 68.52V68.136C168.913 67.9653 168.657 67.9653 168.231 68.136C168.145 67.9653 168.06 67.7947 167.975 67.624C167.889 67.368 167.761 67.112 167.591 66.856C167.505 66.856 167.121 67.1973 166.439 67.88L165.671 68.264L164.903 69.416C164.305 69.7573 163.921 70.0133 163.751 70.184C163.58 70.3547 163.452 70.44 163.367 70.44H162.983C162.641 70.3547 162.471 70.184 162.471 69.928C162.471 69.7573 162.641 69.4587 162.983 69.032C163.409 68.6053 163.708 68.392 163.879 68.392C164.049 68.4773 164.177 68.52 164.263 68.52L164.391 68.008C165.244 67.6667 165.671 67.1973 165.671 66.6L166.567 65.832C166.908 65.832 167.207 65.576 167.463 65.064L167.975 64.68L168.487 62.12C168.657 62.12 168.785 62.0347 168.871 61.864C168.956 61.6933 169.169 61.1813 169.51 60.328C169.596 60.2427 169.596 59.944 169.51 59.432C169.51 59.432 169.468 59.432 169.383 59.432C169.383 59.432 169.34 59.3893 169.255 59.304C169.511 58.9627 169.511 58.4933 169.255 57.896C169.34 57.5547 169.681 57.2987 170.279 57.128C170.364 56.9573 170.663 56.616 171.175 56.104C171.26 56.1893 171.431 55.3787 171.687 53.672C171.687 53.5013 171.9 53.3307 172.327 53.16C172.412 52.2213 172.54 51.5387 172.711 51.112C172.967 50.6 173.351 49.96 173.863 49.192C174.033 48.0827 174.247 47.4 174.503 47.144C175.441 45.9493 175.953 45.0533 176.039 44.456C176.636 44.3707 177.233 43.7733 177.831 42.664C177.831 42.664 177.788 42.664 177.703 42.664C177.703 42.664 177.703 42.6213 177.703 42.536C177.703 41.8533 178.3 40.7867 179.495 39.336C180.689 37.9707 182.055 36.2213 183.591 34.088C183.847 34.0027 184.487 33.448 185.511 32.424C186.023 32.2533 186.321 32.1253 186.407 32.04C186.492 32.2107 186.535 32.3387 186.535 32.424C186.535 32.936 186.279 33.2773 185.767 33.448C184.828 34.8987 184.359 35.5387 184.359 35.368C184.359 35.5387 184.444 35.624 184.615 35.624C184.7 35.624 184.743 35.5813 184.743 35.496H184.871C185.041 35.496 185.34 35.7093 185.767 36.136C185.937 35.9653 186.151 35.8373 186.407 35.752C186.407 35.752 186.407 35.7093 186.407 35.624C186.407 35.4533 186.449 35.2827 186.535 35.112C186.62 35.0267 186.791 34.9413 187.047 34.856C187.303 34.6853 187.601 34.4293 187.943 34.088C188.028 33.7467 188.199 33.32 188.455 32.808C188.796 32.2107 189.265 31.7413 189.863 31.4C189.777 31.3147 189.777 31.1013 189.863 30.76C190.119 30.8453 190.375 30.7173 190.631 30.376C190.972 30.0347 191.271 29.9067 191.527 29.992C191.697 29.48 191.868 29.096 192.039 28.84L192.807 28.456C192.977 27.176 193.404 26.536 194.087 26.536C194.257 26.6213 194.385 26.664 194.471 26.664L194.599 26.152C194.684 26.0667 194.812 25.9813 194.983 25.896C195.153 25.8107 195.324 25.6827 195.495 25.512V25.256C195.495 24.4027 196.007 23.9333 197.031 23.848C197.116 23.6773 197.159 23.2933 197.159 22.696H197.799C198.055 22.44 198.225 22.2267 198.311 22.056C198.396 21.8853 198.609 21.7147 198.951 21.544C198.865 20.6053 199.463 19.1547 200.743 17.192C200.401 17.448 200.103 17.576 199.847 17.576C199.761 17.576 199.719 17.5333 199.719 17.448C199.719 17.2773 199.719 17.1067 199.719 16.936C199.719 16.7653 199.761 16.5093 199.847 16.168C200.017 15.9973 200.231 15.784 200.487 15.528C200.828 15.272 201.169 15.016 201.511 14.76C201.681 14.5893 201.852 14.4187 202.023 14.248C202.279 13.992 202.577 13.6933 202.919 13.352C203.175 13.2667 203.601 12.7973 204.199 11.944C204.369 11.7733 204.583 11.56 204.839 11.304C205.095 10.9627 205.308 10.6213 205.479 10.28C206.161 10.1093 206.631 9.68267 206.887 9C207.143 8.31733 207.953 7.72 209.319 7.208C209.66 6.78133 210.3 6.31199 211.239 5.8C211.239 5.8 211.324 5.544 211.495 5.032C212.007 4.86133 212.689 4.22133 213.543 3.112C213.628 2.94133 214.097 2.55733 214.951 1.96C215.889 1.27733 216.401 0.935997 216.487 0.935997H216.999C216.999 0.935997 217.297 1.10666 217.895 1.448C218.492 1.70399 219.217 2.08799 220.071 2.6L220.327 4.13599L219.943 4.904L220.839 5.28799C220.924 5.28799 220.967 5.416 220.967 5.672C220.967 6.09866 220.839 6.78133 220.583 7.71999C220.497 8.232 220.412 8.744 220.327 9.256C220.327 9.68266 220.369 10.1093 220.455 10.536L217.895 14.12L216.999 15.4C216.913 15.4 216.7 15.4853 216.359 15.656C215.42 16.5093 214.353 18.0453 213.159 20.264C213.073 20.264 213.031 20.264 213.031 20.264C213.031 20.1787 212.988 20.136 212.903 20.136C212.476 20.392 212.092 20.9467 211.751 21.8L210.599 22.312C210.428 22.6533 210.172 22.9947 209.831 23.336L209.575 23.08L209.191 24.36C208.764 24.7013 208.508 25.0427 208.423 25.384C208.423 25.64 208.295 25.9387 208.039 26.28L206.503 27.56C206.417 27.6453 205.905 27.9867 204.967 28.584C204.113 29.1813 203.687 29.608 203.687 29.864C203.175 30.4613 202.492 31.2293 201.639 32.168C200.871 33.0213 199.932 34.088 198.823 35.368C198.481 35.7947 198.012 36.3067 197.415 36.904C196.903 37.416 196.22 38.0133 195.367 38.696C195.196 38.8667 194.897 39.208 194.471 39.72C194.044 40.1467 193.532 40.7013 192.935 41.384C192.508 41.64 191.996 41.9813 191.399 42.408C190.801 42.8347 190.161 43.3467 189.479 43.944C189.479 44.0293 189.351 44.1573 189.095 44.328C188.839 44.4987 188.455 44.968 187.943 45.736H187.559C187.303 46.0773 186.961 46.4613 186.535 46.888C186.193 47.3147 185.809 47.8693 185.383 48.552C185.212 48.552 185.084 48.5947 184.999 48.68C184.401 49.5333 183.761 50.1733 183.079 50.6C183.079 50.6853 182.993 50.8133 182.823 50.984C182.737 51.1547 182.481 51.368 182.055 51.624C182.055 51.7947 181.969 52.0507 181.799 52.392C181.628 52.7333 181.287 53.032 180.775 53.288C180.689 53.3733 180.647 53.544 180.647 53.8H180.263C180.007 54.056 179.793 54.3973 179.623 54.824C178.769 55.08 178.385 55.5067 178.471 56.104L177.319 57.128C176.551 57.7253 175.783 58.536 175.015 59.56C174.929 59.816 174.673 60.9253 174.247 62.888C174.417 63.0587 174.417 63.528 174.247 64.296C173.991 65.1493 173.863 65.704 173.863 65.96C173.863 66.216 173.863 66.3867 173.863 66.472C173.863 66.8987 174.076 67.4107 174.503 68.008C175.015 68.6053 175.271 69.0747 175.271 69.416C175.527 69.5867 175.868 69.5867 176.295 69.416C176.295 69.5867 176.465 69.7147 176.807 69.8C177.063 70.3973 177.575 70.7387 178.343 70.824L178.727 70.312H179.111C179.196 70.6533 179.409 70.824 179.751 70.824C179.921 70.824 180.135 70.7387 180.391 70.568C180.732 70.3973 180.945 70.312 181.031 70.312C180.945 70.3973 181.073 70.4827 181.415 70.568C181.5 70.4827 181.543 70.2693 181.543 69.928H182.567C184.273 69.928 185.34 69.5867 185.767 68.904C186.108 68.8187 186.492 68.6907 186.919 68.52C187.345 68.3493 187.857 68.1787 188.455 68.008C188.796 67.8373 189.009 67.5813 189.095 67.24C189.009 67.24 188.967 67.1973 188.967 67.112H190.375V66.472C190.545 66.3867 191.015 66.344 191.783 66.344L192.295 65.576L193.703 64.808C193.788 64.808 193.959 64.7653 194.215 64.68C194.556 64.5947 194.983 64.2533 195.495 63.656C195.665 63.656 195.836 63.6133 196.007 63.528C196.519 63.1867 197.329 62.4187 198.439 61.224L200.871 59.944L201.127 59.688H202.279C202.193 60.0293 201.937 60.456 201.511 60.968L199.847 62.12C198.737 62.888 198.225 63.272 198.311 63.272H198.183C198.183 63.1867 198.14 63.144 198.055 63.144C197.372 63.4853 196.945 63.912 196.775 64.424C196.519 64.424 196.348 64.5947 196.263 64.936C196.092 64.936 195.879 64.9787 195.623 65.064C195.623 65.064 195.623 65.1067 195.623 65.192C195.623 65.192 195.58 65.2773 195.495 65.448L193.831 66.6C193.831 67.0267 193.489 67.3253 192.807 67.496C192.551 67.496 192.252 67.3253 191.911 66.984L191.143 67.496V67.624C191.143 68.0507 190.929 68.392 190.503 68.648C190.076 68.904 189.735 68.9467 189.479 68.776C189.564 68.8613 189.607 69.032 189.607 69.288C189.607 69.3733 189.393 69.7147 188.967 70.312L185.895 71.848H185.767C185.767 71.7627 185.681 71.72 185.511 71.72C184.999 71.72 184.487 71.976 183.975 72.488C183.719 72.5733 183.207 72.744 182.439 73C181.671 73.256 181.244 73.384 181.159 73.384L180.775 73.128H179.111C178.769 73.128 178.556 73.256 178.471 73.512C178.385 73.768 178.257 73.896 178.087 73.896C178.001 73.896 177.958 73.8533 177.958 73.768H177.703C177.191 73.768 176.892 73.9387 176.807 74.28ZM177.447 55.336L177.958 55.08C178.385 54.6533 178.812 54.1413 179.239 53.544C179.751 52.9467 180.263 52.3067 180.775 51.624C180.775 51.624 180.903 51.496 181.159 51.24C181.415 50.984 181.543 50.728 181.543 50.472C181.969 50.0453 182.439 49.6187 182.951 49.192C183.463 48.68 184.06 48.1253 184.743 47.528L185.255 46.632C185.34 46.5467 185.468 46.4613 185.639 46.376C185.809 46.2907 185.98 46.1627 186.151 45.992L188.967 43.176C189.052 43.0907 189.095 42.92 189.095 42.664C189.692 42.2373 190.033 41.8533 190.119 41.512C190.289 41.4267 190.588 41.1707 191.015 40.744C191.441 40.3173 191.953 39.7627 192.551 39.08C192.892 39.08 193.319 38.696 193.831 37.928C194.001 37.8427 194.3 37.5867 194.727 37.16C195.836 35.2827 196.391 34.3013 196.391 34.216H196.775L198.694 32.168C199.036 31.8267 199.207 31.3573 199.207 30.76C200.657 30.0773 201.468 29.224 201.639 28.2L202.535 27.56C202.535 27.304 202.833 26.8773 203.431 26.28C203.431 26.28 203.473 26.28 203.559 26.28C203.644 26.28 203.729 26.2373 203.815 26.152C203.985 25.896 204.156 25.5973 204.327 25.256C204.583 24.8293 204.881 24.3173 205.223 23.72H205.863L206.247 22.824C206.417 22.4827 206.673 22.1413 207.015 21.8C207.441 21.3733 207.868 20.8613 208.295 20.264V19.752C208.551 19.752 208.849 19.624 209.191 19.368C209.276 19.1973 209.361 19.0267 209.447 18.856C209.532 18.6 209.66 18.3013 209.831 17.96C210.172 17.3627 210.599 16.68 211.111 15.912C211.708 15.144 212.348 14.248 213.031 13.224C213.031 12.6267 213.372 11.9013 214.055 11.048V10.664C214.14 10.5787 214.097 10.536 213.927 10.536C213.756 10.536 213.585 10.6213 213.415 10.792C211.281 12.4133 209.532 13.7787 208.167 14.888C206.887 15.9973 206.033 16.808 205.607 17.32C205.351 17.4053 205.095 17.6613 204.839 18.088C204.839 18.088 204.711 18.216 204.455 18.472C204.284 18.728 203.985 19.0693 203.559 19.496C203.303 19.8373 202.919 19.9653 202.407 19.88C202.321 20.5627 201.809 21.2453 200.871 21.928C200.017 22.5253 199.548 23.08 199.463 23.592C198.609 24.0187 197.543 25.0427 196.263 26.664C195.153 27.7733 193.617 29.5653 191.655 32.04C191.143 32.296 190.503 33.1067 189.735 34.472L188.839 35.24C188.839 35.5813 188.455 35.9653 187.687 36.392C187.687 36.648 187.516 36.9467 187.175 37.288C186.833 37.6293 186.663 37.8853 186.663 38.056C186.407 38.3973 185.98 38.824 185.383 39.336C185.383 39.336 185.297 39.592 185.127 40.104C184.956 40.4453 184.743 40.744 184.487 41C184.231 41.1707 184.017 41.3413 183.847 41.512C183.761 41.8533 183.719 42.1093 183.719 42.28C183.719 42.4507 183.719 42.5787 183.719 42.664C183.292 43.0907 182.823 43.688 182.311 44.456C181.884 45.224 181.415 46.0773 180.903 47.016C180.476 47.016 180.135 47.4 179.878 48.168C179.623 48.936 179.409 49.3627 179.239 49.448C179.068 49.6187 178.855 49.7467 178.599 49.832V50.344L179.111 50.728C178.769 51.496 178.343 51.9227 177.831 52.008C177.831 52.3493 177.745 52.6907 177.575 53.032C177.575 53.1173 177.66 53.16 177.831 53.16C177.66 53.5867 177.532 53.8427 177.447 53.928C177.361 54.0133 177.233 54.1413 177.062 54.312L177.447 55.336ZM209.063 53.288C209.063 52.9467 209.404 52.4347 210.087 51.752H210.215C210.215 51.8373 210.257 51.88 210.343 51.88C210.428 51.88 210.727 51.5387 211.239 50.856C211.751 50.088 212.049 49.704 212.135 49.704C212.391 49.704 212.689 49.832 213.031 50.088V51.24C212.86 51.3253 212.647 51.5387 212.391 51.88C212.135 52.136 211.964 52.264 211.879 52.264C211.623 52.264 211.367 52.136 211.111 51.88C211.025 51.88 210.855 52.136 210.599 52.648L209.447 53.288H209.063ZM203.943 58.28C203.943 58.1093 203.772 57.9813 203.431 57.896C204.028 57.5547 204.924 56.7013 206.119 55.336C206.46 55.4213 206.759 55.1653 207.015 54.568C207.271 53.9707 207.569 53.6293 207.911 53.544H208.551L208.807 53.8C208.721 54.056 208.593 54.3547 208.423 54.696C208.252 55.0373 208.039 55.4213 207.783 55.848H207.655C207.399 55.848 207.1 56.0187 206.759 56.36C206.503 56.616 206.375 56.8293 206.375 57C206.375 57.0853 206.204 57.2133 205.863 57.384C205.521 57.4693 205.052 57.768 204.455 58.28H203.943ZM202.407 59.56V58.408C202.577 58.4933 202.705 58.5787 202.791 58.664C202.876 58.664 202.919 58.664 202.919 58.664C203.089 58.664 203.175 58.5787 203.175 58.408C203.345 58.5787 203.601 58.664 203.943 58.664C203.431 59.2613 202.919 59.56 202.407 59.56ZM210.955 74.024C211.04 74.024 210.955 73.896 210.699 73.64C210.528 73.8107 210.144 73.896 209.547 73.896C209.376 73.896 209.12 73.8107 208.779 73.64C208.523 73.5547 208.352 73.512 208.267 73.512C208.181 73.512 207.968 73.5547 207.627 73.64C207.371 73.7253 207.157 73.768 206.987 73.768C206.901 73.768 206.645 73.6827 206.219 73.512C205.792 73.4267 205.493 73.384 205.323 73.384C205.237 72.2747 204.256 71.848 202.379 72.104V71.848C202.379 71.2507 202.251 70.7813 201.995 70.44C201.739 70.0987 201.525 69.544 201.355 68.776C201.269 68.6907 201.099 68.52 200.843 68.264C200.672 67.9227 200.587 67.2827 200.587 66.344C200.587 66.344 200.672 66.1733 200.843 65.832C200.928 65.7467 200.843 65.5333 200.587 65.192C200.672 65.1067 200.843 64.424 201.099 63.144C201.184 62.7173 201.227 62.376 201.227 62.12C201.312 61.864 201.355 61.6507 201.355 61.48C200.843 61.0533 200.587 60.6693 200.587 60.328L200.971 59.432C201.056 59.5173 201.355 59.56 201.867 59.56H202.379C202.549 59.304 202.72 59.048 202.891 58.792C203.147 58.4507 203.445 58.1093 203.786 57.768C204.299 57.768 204.768 57.2987 205.195 56.36L205.067 55.848C205.152 55.6773 205.237 55.5493 205.323 55.464C205.323 55.464 205.365 55.464 205.451 55.464C205.451 55.464 205.408 55.464 205.323 55.464C205.408 55.464 205.536 55.5067 205.707 55.592C205.792 55.5067 205.963 55.336 206.219 55.08C206.475 54.824 206.901 54.4827 207.499 54.056C207.755 53.7147 208.181 53.288 208.779 52.776C209.803 52.0933 210.357 51.752 210.443 51.752C210.613 51.752 210.997 51.496 211.595 50.984C211.765 51.0693 211.893 51.1547 211.979 51.24C212.064 51.24 212.107 51.24 212.107 51.24C212.277 51.24 212.96 50.9413 214.155 50.344C214.069 50.6853 214.155 50.856 214.411 50.856H215.307C215.733 50.6 215.947 50.472 215.947 50.472C216.8 50.472 217.824 50.9413 219.019 51.88C219.104 51.9653 219.232 52.008 219.403 52.008V54.056C219.232 54.056 219.061 53.9707 218.891 53.8L218.378 54.952C218.72 55.464 218.891 55.72 218.891 55.72C218.72 55.8053 218.293 56.5307 217.611 57.896V58.92C217.269 58.92 216.971 58.9627 216.715 59.048C215.349 59.9867 214.581 60.456 214.411 60.456H214.155C214.069 60.3707 213.984 60.328 213.899 60.328C213.557 60.328 213.088 60.4987 212.491 60.84C212.405 60.9253 212.277 61.096 212.107 61.352C211.936 61.5227 211.723 61.608 211.467 61.608H211.339C211.339 61.5227 211.296 61.48 211.211 61.48C211.04 61.48 210.571 61.6507 209.803 61.992C209.12 62.248 208.736 62.376 208.651 62.376H208.395C208.309 62.2907 208.224 62.248 208.139 62.248L207.755 62.632H206.987C206.645 62.632 206.389 62.5467 206.219 62.376H204.555C204.555 62.7173 204.427 63.2293 204.171 63.912C204 64.5947 203.915 64.9787 203.915 65.064C203.915 65.32 204.213 65.9173 204.811 66.856C204.896 66.9413 205.067 67.1547 205.323 67.496C205.579 67.752 205.963 68.0933 206.475 68.52C206.645 68.8613 206.901 69.2027 207.243 69.544C207.413 69.6293 207.584 69.672 207.755 69.672C207.925 69.672 208.139 69.7147 208.395 69.8L208.779 70.312C209.035 70.1413 209.419 70.1413 209.931 70.312L210.571 70.696C210.997 70.696 211.211 70.696 211.211 70.696C211.211 70.6107 211.211 70.568 211.211 70.568C211.296 70.6533 211.296 70.696 211.211 70.696C211.296 70.7813 211.381 70.824 211.467 70.824C211.552 70.824 211.637 70.7813 211.723 70.696C211.893 70.5253 212.021 70.44 212.107 70.44H212.363C212.363 70.5253 212.405 70.568 212.491 70.568C212.747 70.568 213.045 70.3973 213.387 70.056C213.643 70.1413 213.899 70.1413 214.155 70.056L214.283 70.184V70.568C214.112 70.6533 213.899 70.7813 213.643 70.952C213.387 71.1227 213.045 71.2933 212.619 71.464V71.976C212.619 72.0613 212.789 72.104 213.131 72.104C214.581 72.104 215.733 71.6773 216.587 70.824C216.757 70.9093 216.885 70.9947 216.971 71.08C217.056 71.08 217.099 71.08 217.099 71.08C217.269 71.08 217.355 70.9947 217.355 70.824H217.995C218.165 70.7387 218.421 70.5253 218.763 70.184C219.104 69.7573 219.445 69.544 219.787 69.544L220.299 69.672L220.683 68.648L221.067 68.904C221.237 68.7333 221.621 68.648 222.219 68.648C222.219 68.648 222.219 68.6053 222.219 68.52C222.219 68.4347 222.261 68.3493 222.347 68.264C223.2 68.0933 224.267 67.368 225.547 66.088H226.059L227.979 64.552C227.979 64.3813 228.107 64.1253 228.363 63.784C228.448 63.784 228.576 63.8693 228.747 64.04L229.899 62.504C230.155 62.504 230.453 62.376 230.795 62.12L231.179 62.504L230.283 63.656C229.771 63.9973 229.131 64.5093 228.363 65.192C227.595 65.8747 226.741 66.6853 225.803 67.624C225.205 67.624 224.864 67.7947 224.779 68.136C224.011 68.4773 223.499 68.8613 223.243 69.288L222.859 68.904C222.773 68.9893 222.517 69.2027 222.091 69.544C221.749 69.8 221.152 70.1413 220.299 70.568C220.128 70.7387 219.872 70.9947 219.531 71.336C219.189 71.592 218.848 71.72 218.507 71.72C218.336 71.72 218.293 71.6773 218.378 71.592H218.251C217.909 71.592 217.568 71.72 217.227 71.976C216.885 72.232 216.715 72.4453 216.715 72.616C216.629 72.616 216.501 72.5307 216.331 72.36C215.221 72.9573 214.581 73.256 214.411 73.256H214.155L214.027 73.128L212.107 73.64C212.107 73.64 212.107 73.5973 212.107 73.512C212.107 73.4267 212.064 73.3413 211.979 73.256L211.595 73.768C211.509 73.768 211.381 73.8107 211.211 73.896C211.125 73.9813 211.04 74.024 210.955 74.024ZM207.883 61.096C207.797 60.84 207.883 60.712 208.139 60.712C208.224 60.712 208.267 60.7547 208.267 60.84H208.523C208.608 60.84 208.779 60.712 209.035 60.456C209.376 60.2 209.589 60.072 209.675 60.072C209.76 60.072 209.888 60.1147 210.059 60.2C210.229 60.2853 210.357 60.328 210.443 60.328C210.272 60.328 210.485 60.0293 211.083 59.432L211.467 59.688C213.429 58.408 214.411 57.2987 214.411 56.36C214.411 55.2507 213.856 54.568 212.747 54.312C211.723 54.056 210.741 53.8 209.803 53.544C209.632 53.7147 209.461 53.8 209.291 53.8C208.864 54.4827 208.395 54.9947 207.883 55.336C207.712 55.336 207.2 55.7627 206.347 56.616C206.347 56.7013 206.091 57.0853 205.579 57.768C205.408 58.3653 205.237 58.8347 205.067 59.176C204.981 59.5173 204.939 59.7733 204.939 59.944C205.28 60.5413 205.621 60.84 205.963 60.84H206.091C206.176 60.7547 206.261 60.712 206.347 60.712C206.773 60.712 207.285 60.84 207.883 61.096ZM231.691 61.864V61.608C231.691 61.096 231.947 60.7973 232.458 60.712C232.373 61.0533 232.117 61.4373 231.691 61.864ZM230.543 74.152C230.457 74.0667 230.329 73.9387 230.159 73.768C230.073 73.5973 229.988 73.512 229.903 73.512H229.775C229.775 73.5973 229.732 73.64 229.647 73.64C229.476 73.64 229.305 73.256 229.135 72.488C229.049 72.4027 228.751 72.2747 228.239 72.104C227.983 71.1653 227.684 70.6533 227.343 70.568V67.112L228.367 65.96C228.452 65.8747 228.409 65.576 228.239 65.064C228.324 64.8933 228.409 64.7227 228.495 64.552C228.58 64.3813 228.708 64.2107 228.879 64.04C228.879 63.784 228.836 63.4853 228.751 63.144C228.921 62.632 229.177 62.248 229.519 61.992C229.519 61.48 229.689 61.0107 230.031 60.584C230.201 60.584 230.671 60.072 231.439 59.048L232.719 57.128C232.975 56.9573 233.487 56.488 234.255 55.72V55.208C234.511 55.0373 234.767 54.7813 235.023 54.44C235.62 54.3547 236.047 54.0987 236.303 53.672C236.303 53.5867 236.303 53.4587 236.303 53.288C236.303 53.1173 236.345 52.9467 236.431 52.776C236.601 52.6907 236.772 52.648 236.943 52.648C237.113 52.648 237.327 52.6053 237.583 52.52C237.753 52.008 237.967 51.6667 238.223 51.496C239.332 51.4107 240.143 50.8133 240.655 49.704C240.74 49.704 240.911 49.6187 241.167 49.448C241.508 49.192 241.721 49.064 241.807 49.064C241.721 49.1493 241.849 49.2347 242.191 49.32C242.361 49.1493 242.447 49.0213 242.447 48.936C242.873 48.68 243.257 48.552 243.599 48.552C244.025 48.04 244.239 47.784 244.239 47.784C244.324 47.784 244.367 47.8267 244.367 47.912C244.452 47.9973 244.537 48.04 244.623 48.04C244.793 48.04 245.092 47.9547 245.519 47.784C246.031 47.528 246.372 47.4 246.543 47.4H246.671C246.585 47.4853 246.628 47.528 246.799 47.528C246.884 47.528 246.969 47.4853 247.055 47.4C247.225 47.2293 247.353 47.144 247.439 47.144C247.609 47.144 247.78 47.2293 247.951 47.4C248.121 47.4853 248.249 47.528 248.335 47.528C248.42 47.528 248.463 47.4853 248.463 47.4C248.548 47.3147 248.676 47.272 248.847 47.272C248.676 47.272 248.804 47.3573 249.231 47.528C249.316 47.1867 249.529 47.016 249.871 47.016C250.041 47.016 250.127 47.1013 250.127 47.272C250.212 47.3573 250.34 47.4 250.511 47.4C250.596 47.4 250.639 47.3573 250.639 47.272H250.895C251.065 47.272 251.407 47.6133 251.919 48.296C252.089 48.1253 252.175 48.04 252.175 48.04C252.772 48.4667 253.113 48.808 253.199 49.064V50.344L252.943 50.088C252.431 50.2587 251.919 50.344 251.407 50.344C251.321 50.344 251.236 50.3013 251.151 50.216C251.151 50.1307 251.065 50.088 250.895 50.088C250.809 50.088 250.681 50.1307 250.511 50.216C250.425 50.3013 250.34 50.344 250.255 50.344C250.084 50.344 249.913 50.3013 249.743 50.216C249.657 50.1307 249.572 50.088 249.487 50.088C249.401 50.088 249.359 50.1307 249.359 50.216C249.359 50.3013 249.273 50.344 249.103 50.344H248.975C249.06 50.2587 249.017 50.216 248.847 50.216C248.761 50.216 248.249 50.4293 247.311 50.856C246.457 51.2827 245.988 51.496 245.903 51.496C245.817 51.496 245.689 51.368 245.519 51.112L242.958 52.264L242.062 52.008C241.977 52.008 241.764 52.1787 241.423 52.52C241.081 52.8613 240.825 53.032 240.655 53.032C240.569 53.032 240.527 52.9893 240.527 52.904H240.399C240.057 52.904 239.716 53.1173 239.375 53.544C239.119 53.8853 238.692 54.1413 238.095 54.312C238.009 54.3973 238.009 54.568 238.095 54.824C237.668 55.7627 237.113 56.36 236.431 56.616C236.345 56.7013 236.303 56.872 236.303 57.128H235.407C235.321 57.2133 235.279 57.512 235.279 58.024C235.279 58.024 235.193 58.024 235.023 58.024C234.937 58.024 234.809 57.9813 234.639 57.896C234.383 58.3227 234.34 58.7493 234.51 59.176H233.231C233.06 59.5173 232.847 59.944 232.591 60.456C232.335 60.8827 232.079 61.4373 231.823 62.12C231.737 62.376 231.567 62.7173 231.311 63.144C231.14 63.4853 230.969 63.912 230.799 64.424C230.287 65.0213 229.86 65.7467 229.519 66.6V67.752C229.519 67.8373 229.476 68.008 229.391 68.264C229.305 68.52 229.263 68.7333 229.263 68.904C229.689 69.3307 230.116 69.544 230.543 69.544C230.799 69.544 231.097 69.5013 231.439 69.416C231.865 69.2453 232.249 68.8187 232.591 68.136L232.975 68.392C233.657 68.136 234.425 67.6667 235.279 66.984C235.364 66.8987 235.577 66.8133 235.919 66.728C236.26 66.6427 236.431 66.4293 236.431 66.088C236.516 66.088 236.601 66.1307 236.687 66.216L237.199 65.32C238.137 65.1493 238.649 64.6373 238.735 63.784C238.905 63.784 239.033 63.8267 239.119 63.912L240.015 63.144C240.015 62.9733 240.057 62.8027 240.143 62.632C240.228 62.632 240.313 62.632 240.399 62.632C240.484 62.5467 240.612 62.4613 240.783 62.376L241.551 60.968C241.807 60.712 242.233 60.5413 242.831 60.456C243.087 60.2853 243.3 60.072 243.471 59.816C243.727 59.56 243.94 59.3467 244.111 59.176C244.025 59.0053 243.94 58.8347 243.855 58.664C243.769 58.4933 243.641 58.3227 243.471 58.152C243.3 57.896 243.385 57.6827 243.727 57.512C243.556 57.5973 243.471 57.512 243.471 57.256V56.488C243.727 56.3173 244.025 56.1467 244.367 55.976C244.793 55.8053 245.22 55.5493 245.647 55.208C245.988 55.0373 246.201 54.952 246.287 54.952C246.031 54.952 246.116 55.0373 246.543 55.208C246.713 54.7813 246.927 54.312 247.183 53.8C247.439 53.288 247.695 52.6907 247.951 52.008L248.975 51.496C248.975 51.496 249.06 51.752 249.231 52.264C248.548 53.2027 248.207 53.928 248.207 54.44C248.207 54.696 248.633 54.952 249.487 55.208C249.487 55.208 249.487 55.2507 249.487 55.336C249.487 55.336 249.444 55.3787 249.359 55.464C249.7 55.72 249.956 55.976 250.127 56.232C250.383 56.488 250.553 56.7013 250.639 56.872C250.041 57.7253 249.743 58.536 249.743 59.304L249.999 59.56C249.913 59.6453 249.871 59.9867 249.871 60.584C249.956 61.096 250.041 61.6507 250.127 62.248C250.297 62.76 250.468 63.3573 250.639 64.04L251.535 65.32V65.704C251.535 66.8987 251.961 67.9227 252.815 68.776L253.199 68.52V68.904C253.711 69.0747 254.265 69.4587 254.863 70.056H256.271C256.527 70.3973 256.783 70.568 257.039 70.568C258.404 70.568 259.087 70.2267 259.087 69.544C259.087 69.544 259.172 69.6293 259.343 69.8C260.281 69.3733 261.689 67.9653 263.567 65.576C264.847 64.04 265.572 63.3147 265.743 63.4L266.255 63.528V64.04L266.383 64.168C266.383 64.168 266.041 64.6373 265.359 65.576C265.359 65.9173 265.017 66.344 264.335 66.856C264.505 66.9413 264.505 67.0693 264.335 67.24L263.567 67.752L263.823 68.136C262.969 68.392 262.287 68.7333 261.775 69.16C261.263 69.5867 261.049 69.8853 261.135 70.056C260.964 70.056 260.665 70.312 260.239 70.824C259.897 70.824 259.727 70.9947 259.727 71.336C259.556 71.1653 259.471 71.08 259.471 71.08L259.087 71.336C259.087 71.336 259.001 71.3787 258.831 71.464C258.745 71.5493 258.617 71.6773 258.447 71.848C258.361 71.848 258.233 71.848 258.062 71.848C257.892 71.848 257.721 71.8907 257.551 71.976L257.295 72.36H256.655C256.569 72.2747 256.484 72.232 256.399 72.232C255.631 72.232 255.033 72.4453 254.607 72.872V72.36H252.943V71.848C252.772 72.0187 252.644 72.104 252.559 72.104C252.388 72.104 252.132 71.976 251.791 71.72C251.535 71.3787 251.236 71.2507 250.895 71.336C250.468 70.6533 249.956 69.9707 249.359 69.288C248.847 68.52 248.505 68.2213 248.335 68.392C248.335 68.3067 248.377 68.2213 248.463 68.136C248.207 67.88 248.036 67.496 247.951 66.984C247.353 66.3013 246.201 64.2107 244.495 60.712C244.153 61.0533 243.727 61.5227 243.215 62.12C242.703 62.7173 242.105 63.3573 241.423 64.04C241.337 64.2107 241.252 64.424 241.167 64.68C241.081 64.8507 240.996 65.1067 240.911 65.448L240.015 65.96C240.015 66.1307 239.972 66.344 239.887 66.6C239.887 66.7707 239.844 67.0267 239.759 67.368C239.673 67.368 239.417 67.5387 238.991 67.88C238.649 68.2213 238.308 68.392 237.967 68.392C237.881 68.392 237.753 68.3067 237.583 68.136C237.412 68.3067 237.199 68.5627 236.943 68.904C236.687 69.16 236.388 69.5013 236.047 69.928C236.132 70.0133 236.388 70.056 236.815 70.056V70.568C236.815 70.6533 236.559 70.952 236.047 71.464L236.303 71.72C236.047 71.8907 235.492 72.4027 234.639 73.256C234.553 73.256 234.383 73.256 234.127 73.256C233.956 73.256 233.743 73.2987 233.487 73.384C232.377 73.8107 232.036 74.024 232.463 74.024C232.207 74.024 231.908 73.9813 231.567 73.896H230.799C230.628 73.896 230.543 73.9813 230.543 74.152ZM276.595 119.464C276.424 119.464 276.211 119.379 275.955 119.208C275.699 119.037 275.528 118.952 275.443 118.952C275.187 118.952 275.059 118.995 275.059 119.08H274.675C273.992 118.397 273.096 117.075 271.987 115.112V114.344L271.475 112.424C271.389 112.253 271.219 112.04 270.963 111.784C270.792 111.613 270.621 111.357 270.451 111.016C270.621 110.504 270.621 109.779 270.451 108.84C270.28 108.755 270.024 108.456 269.683 107.944C269.853 107.261 269.853 106.152 269.683 104.616L268.786 103.336C268.701 103.251 268.659 103.123 268.659 102.952L269.299 100.008C269.299 100.093 269.213 99.88 269.043 99.368C269.043 99.1973 269 99.0267 268.915 98.856C268.915 98.7707 268.915 98.6853 268.915 98.6C268.915 98.344 269 97.8747 269.171 97.192C269.085 97.2773 269.043 97.1067 269.043 96.68C269.128 96.68 269.171 96.5947 269.171 96.424V92.84C269.171 92.584 269.213 92.4133 269.299 92.328V90.408C269.384 90.408 269.512 89.9387 269.683 89L270.451 85.032C270.451 84.8613 270.365 84.6907 270.195 84.52V83.624L270.707 83.24V82.216L270.963 81.96C270.963 81.192 270.877 80.7227 270.707 80.552C270.792 80.4667 270.877 80.3813 270.963 80.296C271.048 80.2107 271.133 80.1253 271.219 80.04V79.272L271.731 78.888C271.901 77.5227 271.944 76.7973 271.859 76.712H272.115L271.859 76.584C272.115 75.9867 272.157 75.304 271.987 74.536C271.901 73.8533 271.901 73.4693 271.987 73.384C271.56 73.2133 271.304 73 271.219 72.744L270.579 72.616L270.451 72.744V73C270.365 73.256 270.024 73.384 269.427 73.384C268.744 73.2133 268.232 72.7867 267.891 72.104L267.379 71.976C267.549 71.8053 267.421 71.6347 266.995 71.464C266.568 71.208 266.227 70.7387 265.971 70.056C266.141 69.8 266.397 69.544 266.739 69.288L269.939 69.928C270.109 69.672 270.28 69.544 270.451 69.544C270.792 69.544 271.091 69.7147 271.347 70.056H272.115C272.285 69.4587 272.541 68.9893 272.883 68.648C272.968 68.5627 273.01 68.3493 273.01 68.008L273.779 65.704C273.608 65.2773 273.608 64.7227 273.779 64.04C273.864 63.9547 274.035 63.5707 274.291 62.888V61.992C274.376 61.8213 274.461 61.6507 274.547 61.48C274.632 61.3093 274.76 61.096 274.931 60.84V59.56L275.187 59.176C275.101 58.92 275.059 58.408 275.059 57.64L275.827 55.72C275.827 55.6347 276.04 55.464 276.467 55.208C276.723 54.184 276.765 53.5867 276.595 53.416C276.936 53.16 277.107 52.8187 277.107 52.392C277.192 51.88 277.405 51.0267 277.747 49.832C277.832 49.7467 277.789 49.704 277.619 49.704L278.131 49.064C278.045 48.296 276.851 47.5707 274.547 46.888C274.461 46.8027 274.163 46.5893 273.651 46.248C273.139 45.8213 272.755 45.608 272.499 45.608C272.328 45.608 272.2 45.6507 272.115 45.736H271.731L271.603 45.224C271.261 44.968 270.877 44.584 270.451 44.072V43.176C270.365 43.0053 270.28 42.92 270.195 42.92C270.365 42.664 270.579 42.3653 270.835 42.024C270.749 41.9387 270.707 41.7253 270.707 41.384C270.963 41.0427 271.219 40.7867 271.475 40.616C271.731 40.36 272.627 40.1467 274.163 39.976C274.248 39.976 274.333 39.9333 274.419 39.848C274.504 39.848 274.547 39.8907 274.547 39.976C274.632 40.0613 274.717 40.104 274.803 40.104C274.888 40.104 274.931 40.0613 274.931 39.976C275.016 39.8053 275.101 39.72 275.187 39.72C275.699 39.72 276.125 39.848 276.467 40.104C276.552 40.2747 277.192 40.872 278.387 41.896H279.283C279.283 41.7253 279.283 41.4693 279.283 41.128C279.283 40.7867 279.325 40.4027 279.411 39.976C279.411 39.8907 279.539 39.592 279.795 39.08C279.709 38.9947 279.667 38.6533 279.667 38.056C279.923 36.8613 280.051 36.392 280.051 36.648C280.051 36.5627 280.008 36.4773 279.923 36.392C279.923 35.9653 279.88 35.5387 279.795 35.112C279.795 34.6853 279.752 34.216 279.667 33.704C279.752 33.5333 279.795 33.4053 279.795 33.32C279.795 33.1493 279.795 33.064 279.795 33.064C279.283 32.1253 279.027 31.656 279.027 31.656C279.027 31.144 279.24 30.888 279.667 30.888C280.008 30.888 280.221 31.016 280.307 31.272C280.563 32.2107 280.861 33.0213 281.203 33.704C281.629 34.3867 281.843 35.1973 281.843 36.136L281.715 36.392C281.629 36.4773 281.672 36.648 281.843 36.904L281.458 41.512C281.458 41.5973 281.373 41.768 281.203 42.024C281.117 42.28 281.075 42.4507 281.075 42.536C281.075 43.2187 281.373 43.7307 281.971 44.072C282.312 44.2427 282.525 44.328 282.611 44.328C282.696 44.2427 282.781 44.2 282.867 44.2C282.867 44.6267 283.336 45.1813 284.275 45.864H284.403C284.403 45.7787 284.445 45.736 284.531 45.736C284.787 45.736 285.171 45.9493 285.683 46.376C286.195 46.8027 286.451 47.1867 286.451 47.528L288.883 49.448L288.627 50.088L289.011 50.472C289.267 50.984 289.693 51.24 290.291 51.24C290.376 51.496 290.504 51.8373 290.675 52.264C290.845 52.6053 291.016 52.9893 291.187 53.416C291.699 53.5013 291.997 53.5867 292.083 53.672C292.168 53.5867 292.253 53.544 292.339 53.544L292.595 53.8V55.464C292.68 55.5493 293.021 55.592 293.619 55.592L294.131 56.616C294.216 56.7867 294.131 56.9573 293.875 57.128L294.259 57.512C294.344 57.512 294.387 57.4267 294.387 57.256C294.557 57.3413 294.685 57.4267 294.771 57.512C294.856 57.5973 294.941 57.6827 295.027 57.768C295.368 59.304 295.923 60.1147 296.691 60.2C296.691 60.3707 296.648 60.6693 296.562 61.096C296.477 61.5227 296.435 61.8213 296.435 61.992L297.587 63.4L297.715 64.808C297.715 65.32 297.757 65.704 297.843 65.96L301.427 65.32L303.347 64.936C303.517 64.7653 303.731 64.6373 303.987 64.552C306.12 64.296 308.595 63.528 311.411 62.248C311.496 62.3333 311.624 62.376 311.795 62.376C311.965 62.376 312.136 62.4187 312.307 62.504L312.947 61.864C314.056 61.2667 314.739 61.1813 314.995 61.608C315.08 61.864 314.568 62.2907 313.459 62.888C312.861 63.2293 312.093 63.528 311.155 63.784C310.216 64.04 308.424 64.6373 305.779 65.576L302.835 66.472L298.099 67.368C298.184 67.624 298.227 67.8373 298.227 68.008C298.227 68.1787 298.227 68.3493 298.227 68.52L297.971 68.776V69.928C297.715 69.928 297.544 70.0987 297.458 70.44L296.179 71.08V71.976C296.093 72.232 295.837 72.488 295.411 72.744H294.771C293.917 73.1707 293.576 73.384 293.747 73.384H293.619C293.619 73.2987 293.576 73.256 293.491 73.256C293.405 73.256 293.064 73.384 292.467 73.64C291.955 73.896 291.656 74.024 291.571 74.024C291.4 74.024 291.229 73.9813 291.059 73.896C290.973 73.8107 290.888 73.768 290.803 73.768C290.632 73.768 290.333 73.8533 289.907 74.024C289.565 74.1947 289.395 74.28 289.395 74.28C289.309 74.28 289.267 74.28 289.267 74.28H289.395C289.309 74.1947 288.968 74.0667 288.371 73.896C287.773 73.8107 287.389 73.768 287.219 73.768C287.133 73.768 287.048 73.8107 286.963 73.896C286.963 73.9813 286.92 74.024 286.835 74.024C286.749 74.024 286.621 73.9813 286.451 73.896C286.365 73.8107 286.237 73.768 286.067 73.768C285.981 73.768 285.896 73.8107 285.811 73.896H285.555C285.64 73.896 285.469 73.768 285.043 73.512C284.872 73.512 284.616 73.512 284.275 73.512C283.933 73.512 283.549 73.4693 283.123 73.384L281.458 73.768H280.051C279.965 73.768 279.837 73.6827 279.667 73.512C279.667 73.512 279.325 73.512 278.643 73.512H278.003C277.747 73.512 277.448 73.512 277.107 73.512C276.851 73.512 276.509 73.5547 276.083 73.64C275.997 73.9813 275.912 74.3227 275.827 74.664C275.741 75.0907 275.656 75.6027 275.571 76.2C275.656 76.456 275.656 76.7547 275.571 77.096C275.315 77.352 275.144 77.608 275.059 77.864C274.973 78.2053 274.888 78.504 274.803 78.76C274.803 79.1013 274.803 79.4427 274.803 79.784C274.803 80.04 274.973 80.2533 275.315 80.424C275.656 80.5947 275.827 80.8507 275.827 81.192C275.827 81.192 275.784 81.32 275.699 81.576C275.613 81.832 275.485 82.1733 275.315 82.6C275.315 82.7707 275.229 82.984 275.059 83.24C274.888 83.5813 274.632 84.0507 274.291 84.648V85.16C274.291 85.416 274.248 85.672 274.163 85.928C274.163 86.2693 274.12 86.6533 274.035 87.08C274.035 87.4213 273.992 87.8053 273.907 88.232C273.907 88.744 273.907 89.2987 273.907 89.896C273.907 90.4933 273.907 91.0907 273.907 91.688C273.992 92.3707 274.035 93.0533 274.035 93.736V93.864C274.035 94.0347 273.949 94.248 273.779 94.504C273.693 94.76 273.651 94.9733 273.651 95.144C273.651 95.4853 273.736 95.912 273.907 96.424C273.736 96.68 273.608 97.2347 273.523 98.088C273.693 98.6 273.693 99.3253 273.523 100.264C273.181 101.373 273.01 101.757 273.01 101.416V104.104C273.267 104.189 273.523 104.189 273.779 104.104C273.608 104.36 273.48 105.299 273.395 106.92C273.309 106.92 273.267 107.005 273.267 107.176V111.656L273.779 112.296H273.395C273.309 112.381 273.267 112.595 273.267 112.936C273.267 113.448 273.437 114.131 273.779 114.984C274.205 115.837 274.589 116.307 274.931 116.392C275.016 116.392 274.973 116.605 274.803 117.032L275.059 117.416C275.229 117.245 275.315 117.075 275.315 116.904H275.699C276.381 117.587 276.851 117.928 277.107 117.928C277.277 117.928 277.448 117.885 277.619 117.8H278.003V118.824C277.661 119.165 277.491 119.336 277.491 119.336H276.979C276.893 119.421 276.765 119.464 276.595 119.464ZM270.195 42.92C270.195 42.8347 270.195 42.8347 270.195 42.92V42.92ZM277.107 69.544C278.984 69.3733 280.691 69.2027 282.227 69.032C283.848 68.776 285.341 68.4773 286.707 68.136L289.907 67.368C290.248 67.368 290.589 67.368 290.931 67.368C291.357 67.2827 291.869 67.1973 292.467 67.112C292.552 67.1973 292.723 67.24 292.979 67.24L295.283 66.728L296.179 66.472C296.008 65.96 295.923 65.704 295.923 65.704C295.667 65.7893 295.325 65.2347 294.899 64.04C294.899 64.1253 294.6 63.528 294.003 62.248L293.107 60.968L292.211 60.2C291.613 59.7733 290.973 59.2613 290.291 58.664C289.693 57.9813 289.011 57.2987 288.243 56.616C288.157 56.2747 287.944 55.976 287.603 55.72C287.261 55.3787 287.005 54.9947 286.835 54.568C286.408 54.2267 285.683 53.7147 284.659 53.032C283.635 52.264 282.312 51.4533 280.691 50.6V50.728H280.179V50.984C280.179 50.984 280.008 51.368 279.667 52.136C279.411 52.904 279.24 53.416 279.155 53.672C279.24 53.8427 279.283 54.184 279.283 54.696L278.643 56.36C278.301 58.152 278.045 59.688 277.875 60.968V61.736C277.533 62.76 277.363 63.656 277.363 64.424C277.363 65.5333 277.405 66.0453 277.491 65.96V65.832C277.491 65.9173 277.491 65.96 277.491 65.96L277.107 66.728V69.544ZM286.195 71.592L286.963 71.208L287.219 71.464C287.389 71.2933 287.517 71.208 287.603 71.208H289.523L290.547 70.952C290.803 70.952 291.016 71.0373 291.187 71.208C291.272 70.8667 291.443 70.696 291.699 70.696C291.869 70.8667 292.381 71.0373 293.235 71.208C293.405 71.0373 293.533 70.9093 293.619 70.824C293.789 70.7387 293.875 70.696 293.875 70.696C293.96 70.696 294.003 70.7387 294.003 70.824H294.259C294.429 70.824 294.6 70.696 294.771 70.44C295.027 70.184 295.411 70.0133 295.923 69.928L296.435 68.776L296.051 68.52C296.307 68.0933 296.477 67.8373 296.562 67.752L292.979 68.392C292.125 68.4773 290.717 68.776 288.755 69.288C286.877 69.8 284.445 70.4827 281.458 71.336C281.8 71.336 282.141 71.336 282.483 71.336C282.909 71.336 283.336 71.2933 283.763 71.208C283.763 71.2933 284.189 71.336 285.043 71.336C285.811 71.336 286.195 71.4213 286.195 71.592ZM264.819 69.928C264.733 69.8427 264.648 69.7573 264.562 69.672C264.562 69.5867 264.477 69.5013 264.306 69.416V68.776L264.819 68.392L265.587 69.288L264.819 69.928ZM317.58 74.024C317.665 74.024 317.58 73.896 317.324 73.64C317.153 73.8107 316.769 73.896 316.172 73.896C316.001 73.896 315.745 73.8107 315.404 73.64C315.148 73.5547 314.977 73.512 314.892 73.512C314.806 73.512 314.593 73.5547 314.252 73.64C313.996 73.7253 313.782 73.768 313.612 73.768C313.526 73.768 313.27 73.6827 312.844 73.512C312.417 73.4267 312.118 73.384 311.948 73.384C311.862 72.2747 310.881 71.848 309.004 72.104V71.848C309.004 71.2507 308.876 70.7813 308.62 70.44C308.364 70.0987 308.15 69.544 307.98 68.776C307.894 68.6907 307.724 68.52 307.468 68.264C307.297 67.9227 307.212 67.2827 307.212 66.344C307.212 66.344 307.297 66.1733 307.468 65.832C307.553 65.7467 307.468 65.5333 307.212 65.192C307.297 65.1067 307.468 64.424 307.724 63.144C307.809 62.7173 307.852 62.376 307.852 62.12C307.937 61.864 307.98 61.6507 307.98 61.48C307.468 61.0533 307.212 60.6693 307.212 60.328L307.596 59.432C307.681 59.5173 307.98 59.56 308.492 59.56H309.004C309.174 59.304 309.345 59.048 309.516 58.792C309.772 58.4507 310.07 58.1093 310.411 57.768C310.924 57.768 311.393 57.2987 311.82 56.36L311.692 55.848C311.777 55.6773 311.862 55.5493 311.948 55.464C311.948 55.464 311.99 55.464 312.076 55.464C312.076 55.464 312.033 55.464 311.948 55.464C312.033 55.464 312.161 55.5067 312.332 55.592C312.417 55.5067 312.588 55.336 312.844 55.08C313.1 54.824 313.526 54.4827 314.124 54.056C314.38 53.7147 314.806 53.288 315.404 52.776C316.428 52.0933 316.982 51.752 317.068 51.752C317.238 51.752 317.622 51.496 318.22 50.984C318.39 51.0693 318.518 51.1547 318.604 51.24C318.689 51.24 318.732 51.24 318.732 51.24C318.902 51.24 319.585 50.9413 320.78 50.344C320.694 50.6853 320.78 50.856 321.036 50.856H321.932C322.358 50.6 322.572 50.472 322.572 50.472C323.425 50.472 324.449 50.9413 325.644 51.88C325.729 51.9653 325.857 52.008 326.028 52.008V54.056C325.857 54.056 325.686 53.9707 325.516 53.8L325.003 54.952C325.345 55.464 325.516 55.72 325.516 55.72C325.345 55.8053 324.918 56.5307 324.236 57.896V58.92C323.894 58.92 323.596 58.9627 323.34 59.048C321.974 59.9867 321.206 60.456 321.036 60.456H320.78C320.694 60.3707 320.609 60.328 320.524 60.328C320.182 60.328 319.713 60.4987 319.116 60.84C319.03 60.9253 318.902 61.096 318.732 61.352C318.561 61.5227 318.348 61.608 318.092 61.608H317.964C317.964 61.5227 317.921 61.48 317.836 61.48C317.665 61.48 317.196 61.6507 316.428 61.992C315.745 62.248 315.361 62.376 315.276 62.376H315.02C314.934 62.2907 314.849 62.248 314.764 62.248L314.38 62.632H313.612C313.27 62.632 313.014 62.5467 312.844 62.376H311.18C311.18 62.7173 311.052 63.2293 310.796 63.912C310.625 64.5947 310.54 64.9787 310.54 65.064C310.54 65.32 310.838 65.9173 311.436 66.856C311.521 66.9413 311.692 67.1547 311.948 67.496C312.204 67.752 312.588 68.0933 313.1 68.52C313.27 68.8613 313.526 69.2027 313.868 69.544C314.038 69.6293 314.209 69.672 314.38 69.672C314.55 69.672 314.764 69.7147 315.02 69.8L315.404 70.312C315.66 70.1413 316.044 70.1413 316.556 70.312L317.196 70.696C317.622 70.696 317.836 70.696 317.836 70.696C317.836 70.6107 317.836 70.568 317.836 70.568C317.921 70.6533 317.921 70.696 317.836 70.696C317.921 70.7813 318.006 70.824 318.092 70.824C318.177 70.824 318.262 70.7813 318.348 70.696C318.518 70.5253 318.646 70.44 318.732 70.44H318.988C318.988 70.5253 319.03 70.568 319.116 70.568C319.372 70.568 319.67 70.3973 320.012 70.056C320.268 70.1413 320.524 70.1413 320.78 70.056L320.908 70.184V70.568C320.737 70.6533 320.524 70.7813 320.268 70.952C320.012 71.1227 319.67 71.2933 319.244 71.464V71.976C319.244 72.0613 319.414 72.104 319.756 72.104C321.206 72.104 322.358 71.6773 323.212 70.824C323.382 70.9093 323.51 70.9947 323.596 71.08C323.681 71.08 323.724 71.08 323.724 71.08C323.894 71.08 323.98 70.9947 323.98 70.824H324.62C324.79 70.7387 325.046 70.5253 325.388 70.184C325.729 69.7573 326.07 69.544 326.412 69.544L326.924 69.672L327.308 68.648L327.692 68.904C327.862 68.7333 328.246 68.648 328.844 68.648C328.844 68.648 328.844 68.6053 328.844 68.52C328.844 68.4347 328.886 68.3493 328.972 68.264C329.825 68.0933 330.892 67.368 332.172 66.088H332.684L334.604 64.552C334.604 64.3813 334.732 64.1253 334.988 63.784C335.073 63.784 335.201 63.8693 335.372 64.04L336.524 62.504C336.78 62.504 337.078 62.376 337.42 62.12L337.804 62.504L336.908 63.656C336.396 63.9973 335.756 64.5093 334.988 65.192C334.22 65.8747 333.366 66.6853 332.428 67.624C331.83 67.624 331.489 67.7947 331.404 68.136C330.636 68.4773 330.124 68.8613 329.868 69.288L329.484 68.904C329.398 68.9893 329.142 69.2027 328.716 69.544C328.374 69.8 327.777 70.1413 326.924 70.568C326.753 70.7387 326.497 70.9947 326.156 71.336C325.814 71.592 325.473 71.72 325.132 71.72C324.961 71.72 324.918 71.6773 325.003 71.592H324.876C324.534 71.592 324.193 71.72 323.852 71.976C323.51 72.232 323.34 72.4453 323.34 72.616C323.254 72.616 323.126 72.5307 322.956 72.36C321.846 72.9573 321.206 73.256 321.036 73.256H320.78L320.652 73.128L318.732 73.64C318.732 73.64 318.732 73.5973 318.732 73.512C318.732 73.4267 318.689 73.3413 318.604 73.256L318.22 73.768C318.134 73.768 318.006 73.8107 317.836 73.896C317.75 73.9813 317.665 74.024 317.58 74.024ZM314.508 61.096C314.422 60.84 314.508 60.712 314.764 60.712C314.849 60.712 314.892 60.7547 314.892 60.84H315.148C315.233 60.84 315.404 60.712 315.66 60.456C316.001 60.2 316.214 60.072 316.3 60.072C316.385 60.072 316.513 60.1147 316.684 60.2C316.854 60.2853 316.982 60.328 317.068 60.328C316.897 60.328 317.11 60.0293 317.708 59.432L318.092 59.688C320.054 58.408 321.036 57.2987 321.036 56.36C321.036 55.2507 320.481 54.568 319.372 54.312C318.348 54.056 317.366 53.8 316.428 53.544C316.257 53.7147 316.086 53.8 315.916 53.8C315.489 54.4827 315.02 54.9947 314.508 55.336C314.337 55.336 313.825 55.7627 312.972 56.616C312.972 56.7013 312.716 57.0853 312.204 57.768C312.033 58.3653 311.862 58.8347 311.692 59.176C311.606 59.5173 311.564 59.7733 311.564 59.944C311.905 60.5413 312.246 60.84 312.588 60.84H312.716C312.801 60.7547 312.886 60.712 312.972 60.712C313.398 60.712 313.91 60.84 314.508 61.096ZM338.316 61.864V61.608C338.316 61.096 338.572 60.7973 339.083 60.712C338.998 61.0533 338.742 61.4373 338.316 61.864ZM336.784 75.048C336.698 75.048 336.57 74.9627 336.4 74.792C336.314 74.7067 336.186 74.664 336.016 74.664C336.101 74.664 335.93 74.7493 335.504 74.92L333.968 73V69.8L334.224 69.544V69.288C334.224 69.1173 334.266 68.904 334.352 68.648C334.522 68.392 334.65 68.0933 334.736 67.752C334.65 67.6667 334.608 67.496 334.608 67.24C334.608 66.8133 334.906 66.4293 335.504 66.088C335.418 65.832 335.418 65.4053 335.504 64.808L335.888 64.04C336.058 63.784 336.016 63.528 335.76 63.272L336.272 60.456C336.357 60.3707 336.485 60.072 336.656 59.56L337.168 54.952C337.082 54.8667 337.04 54.696 337.04 54.44C337.21 54.0987 337.296 53.8853 337.296 53.8C337.296 53.2027 337.253 52.8187 337.168 52.648C337.082 52.4773 336.997 52.3067 336.911 52.136C336.997 51.7947 337.04 51.368 337.04 50.856C337.04 50.088 336.741 49.704 336.144 49.704C336.144 49.704 336.058 49.7467 335.888 49.832C335.802 49.832 335.632 49.8747 335.376 49.96L335.248 49.448V49.32C335.248 48.8933 335.632 48.4667 336.4 48.04C336.485 48.04 336.528 48.0827 336.528 48.168H336.784C337.125 48.168 337.466 47.9973 337.808 47.656L339.728 49.192C339.813 49.192 339.77 49.4053 339.6 49.832L340.24 50.728V53.8C340.325 53.9707 340.368 54.0987 340.368 54.184C340.453 54.2693 340.496 54.3547 340.496 54.44C340.496 54.5253 340.453 54.6107 340.368 54.696C340.282 54.7813 340.24 54.9093 340.24 55.08V59.56C340.154 59.56 340.069 59.6027 339.984 59.688C340.069 59.7733 340.112 60.84 340.112 62.888C340.112 63.0587 340.026 63.3147 339.856 63.656C339.685 63.9973 339.6 64.2107 339.6 64.296C339.6 64.3813 339.685 64.5947 339.856 64.936H340.112C340.112 64.936 340.325 64.296 340.752 63.016H341.135C341.135 62.8453 341.135 62.6747 341.135 62.504C341.135 62.248 341.178 61.9493 341.264 61.608L342.928 59.688C343.013 59.5173 343.141 59.304 343.312 59.048C343.482 58.7067 343.653 58.3653 343.824 58.024C343.909 57.8533 344.208 57.512 344.72 57C344.805 56.8293 344.89 56.6587 344.976 56.488C345.061 56.232 345.189 55.9333 345.36 55.592L346.256 54.824C346.256 54.6533 346.341 54.4827 346.512 54.312C346.768 54.056 346.938 53.8 347.024 53.544C347.45 53.4587 347.749 53.032 347.92 52.264C348.432 52.008 349.114 51.4533 349.968 50.6V50.088C350.65 49.4907 350.949 49.192 350.864 49.192H350.992C350.992 49.2773 351.034 49.32 351.12 49.32C351.034 49.32 351.546 48.68 352.656 47.4C353.082 47.2293 353.808 46.5467 354.832 45.352C355.429 45.096 356.112 44.6693 356.88 44.072H358.032L359.44 44.328C359.866 44.4987 360.336 44.84 360.848 45.352C361.36 45.7787 361.744 46.5893 362 47.784V49.064C362 49.2347 361.957 49.5333 361.872 49.96C361.872 50.3013 361.829 50.7707 361.744 51.368C361.658 52.648 360.549 54.2693 358.416 56.232C358.074 56.232 357.605 56.4453 357.008 56.872V55.464C357.178 55.2933 357.349 55.08 357.52 54.824C357.69 54.4827 357.861 54.1413 358.032 53.8C358.032 53.6293 357.69 53.4587 357.008 53.288C357.52 52.264 357.776 51.624 357.776 51.368C357.776 51.112 357.648 50.8133 357.392 50.472C357.221 50.5573 357.093 50.6427 357.008 50.728C356.922 50.728 356.88 50.728 356.88 50.728C356.197 50.728 355.898 50.6853 355.984 50.6C355.898 50.5147 355.856 50.3013 355.856 49.96H355.6C355.429 49.96 355.173 50.1307 354.832 50.472C354.49 50.728 354.277 50.856 354.192 50.856C354.106 50.856 354.064 50.8133 354.064 50.728H353.808C353.722 50.728 353.594 50.8133 353.424 50.984C353.253 51.1547 353.082 51.24 352.912 51.24C352.741 51.24 352.57 51.112 352.4 50.856C352.229 50.856 352.101 50.8987 352.016 50.984C352.186 51.3253 352.186 51.7093 352.016 52.136C351.674 52.648 351.333 52.904 350.992 52.904C350.906 52.904 350.778 52.8613 350.608 52.776C350.522 52.6907 350.437 52.648 350.352 52.648C350.352 53.0747 350.394 53.3733 350.48 53.544L349.456 54.824C349.285 54.9947 349.072 55.08 348.816 55.08C348.73 55.08 348.602 54.9947 348.432 54.824L347.792 56.616H347.664C347.237 56.616 346.597 57.1707 345.744 58.28L345.232 58.536C344.122 60.4987 343.141 62.12 342.288 63.4C341.52 64.68 340.922 65.576 340.496 66.088V67.112C339.898 67.5387 339.557 68.4347 339.472 69.8C339.301 69.9707 339.13 70.2693 338.96 70.696C339.13 71.0373 339.13 71.5493 338.96 72.232C338.874 72.3173 338.789 72.5307 338.704 72.872C338.618 73.128 338.49 73.512 338.32 74.024C337.893 74.7067 337.381 75.048 336.784 75.048Z" fill="white"/>
</svg>
